M48
; DRILL file {KiCad (5.1.4)-1} date 10/6/2019 2:51:05 AM
; FORMAT={-:-/ absolute / inch / decimal}
; #@! TF.CreationDate,2019-10-06T02:51:05-04:00
; #@! TF.GenerationSoftware,Kicad,Pcbnew,(5.1.4)-1
; #@! TF.FileFunction,NonPlated,1,2,NPTH
FMAT,2
INCH
T1C0.1181
T2C0.2953
%
G90
G05
T1
X7.9Y-1.5929
X4.1Y-4.4071
X7.9Y-0.4929
X4.1Y-2.2071
X7.9Y-2.6929
X7.9Y-3.7929
X4.1Y-1.1071
X4.1Y-3.3071
X4.1Y-0.0071
X7.9Y0.6071
T2
X4.1Y-4.1
X7.9Y-0.8
X4.1Y-1.9
X7.9Y-3.0
X7.9Y-4.1
X4.1Y-0.8
X4.1Y-3.0
X4.1Y0.3
X7.9Y-1.9
X7.9Y0.3
T0
M30
