M48
; DRILL file {KiCad (5.1.4)-1} date 10/6/2019 2:51:05 AM
; FORMAT={-:-/ absolute / inch / decimal}
; #@! TF.CreationDate,2019-10-06T02:51:05-04:00
; #@! TF.GenerationSoftware,Kicad,Pcbnew,(5.1.4)-1
; #@! TF.FileFunction,Plated,1,2,PTH
FMAT,2
INCH
T1C0.0300
T2C0.0315
T3C0.0354
T4C0.0374
T5C0.0394
T6C0.0433
T7C0.0472
T8C0.1150
T9C0.1457
T10C0.1575
%
G90
G05
T1
X5.65Y-0.85
X5.65Y-1.05
X5.65Y0.35
X5.65Y-2.05
X5.65Y-2.25
X5.65Y-0.25
X5.65Y-0.45
X5.65Y-2.65
X5.65Y-2.85
X5.65Y-1.45
X5.65Y-1.65
X5.65Y-4.45
X5.65Y-4.65
X5.65Y-3.25
X5.65Y-3.45
X5.65Y-3.85
X5.65Y-4.05
X5.9Y1.475
X6.1Y1.475
X5.65Y0.15
T2
X6.85Y-2.8
X6.85Y-3.2
X5.0Y1.3
X5.4Y1.3
X5.0Y0.5
X5.0Y0.1
X6.35Y-0.9
X6.35Y-0.9787
X6.85Y-3.9
X6.85Y-4.3
X6.85Y0.5
X6.85Y0.1
X7.0Y-3.9
X7.0Y-4.3
X4.85Y-0.6
X4.85Y-1.0
X7.0Y0.5
X7.0Y0.1
X6.35Y-0.3
X6.35Y-0.3787
X5.0Y-2.8
X5.0Y-3.2
X5.0Y-1.7
X5.0Y-2.1
X6.35Y-3.9
X6.35Y-3.9787
X5.15Y0.5
X5.15Y0.1
X6.35Y-2.7
X6.35Y-2.7787
X6.6Y1.3
X7.0Y1.3
X6.0Y1.7287
X6.0Y1.65
X7.15Y-2.8
X7.15Y-3.2
X6.85Y-0.6
X6.85Y-1.0
X6.0Y-4.6
X6.0Y-4.6787
X5.0Y-3.9
X5.0Y-4.3
X5.15Y-3.9
X5.15Y-4.3
X7.15Y-0.6
X7.15Y-1.0
X5.15Y-2.8
X5.15Y-3.2
X7.0Y-2.8
X7.0Y-3.2
X7.15Y0.5
X7.15Y0.1
X4.85Y0.5
X4.85Y0.1
X5.15Y-1.7
X5.15Y-2.1
X5.0Y1.9
X5.4Y1.9
X7.15Y-3.9
X7.15Y-4.3
X4.85Y-2.8
X4.85Y-3.2
X5.15Y-0.6
X5.15Y-1.0
X5.0Y-0.6
X5.0Y-1.0
X6.35Y-1.5
X6.35Y-1.5787
X6.85Y-1.7
X6.85Y-2.1
X4.85Y-1.7
X4.85Y-2.1
X7.0Y-0.6
X7.0Y-1.0
X6.6Y-4.55
X7.0Y-4.55
X6.35Y-2.1
X6.35Y-2.1787
X7.0Y-1.7
X7.0Y-2.1
X7.15Y-1.7
X7.15Y-2.1
X6.35Y-4.5
X6.35Y-4.5787
X6.35Y-3.3
X6.35Y-3.3787
X6.6Y1.9
X7.0Y1.9
X6.35Y0.3
X6.35Y0.2213
X4.85Y-3.9
X4.85Y-4.3
T3
X7.275Y-4.55
X7.375Y-4.55
T4
X4.2079Y-4.95
X4.3063Y-4.95
X4.4047Y-4.95
X4.5031Y-4.95
X4.6016Y-4.95
X4.7Y-4.95
X4.7984Y-4.95
X4.8969Y-4.95
X4.9953Y-4.95
X5.0937Y-4.95
X5.1921Y-4.95
T5
X5.45Y-4.95
X5.55Y-4.95
X5.65Y-4.95
X5.75Y-4.95
X5.85Y-4.95
X5.95Y-4.95
X6.05Y-4.95
X6.15Y-4.95
X6.25Y-4.95
X6.35Y-4.95
X6.45Y-4.95
T6
X5.8Y0.675
X6.2Y0.675
X6.0Y1.3
X6.0Y0.9
X5.8Y-2.9
X6.2Y-2.9
X5.8Y-0.5
X6.2Y-0.5
X4.8Y-3.55
X5.2Y-3.55
X5.8Y-3.5
X6.2Y-3.5
X5.8Y-2.3
X6.2Y-2.3
X4.8Y-0.25
X5.2Y-0.25
X6.8Y-1.35
X7.2Y-1.35
X4.8Y-4.525
X5.2Y-4.525
X6.8Y0.75
X7.2Y0.75
X5.8Y-1.7
X6.2Y-1.7
X6.8Y-2.45
X7.2Y-2.45
X6.8Y-3.55
X7.2Y-3.55
X5.8Y-1.1
X6.2Y-1.1
X4.8Y-1.35
X5.2Y-1.35
X4.8Y-2.45
X5.2Y-2.45
X6.8Y-0.25
X7.2Y-0.25
X5.8Y-4.1
X6.2Y-4.1
X5.8Y0.1
X6.2Y0.1
T7
X5.1Y1.0
X5.2Y1.0
X5.3Y1.0
X5.9Y-1.4
X6.0Y-1.4
X6.1Y-1.4
X5.9Y-4.4
X6.0Y-4.4
X6.1Y-4.4
X5.9Y0.4
X6.0Y0.4
X6.1Y0.4
X5.9Y-2.6
X6.0Y-2.6
X6.1Y-2.6
X5.9Y-3.2
X6.0Y-3.2
X6.1Y-3.2
X5.9Y-0.8
X6.0Y-0.8
X6.1Y-0.8
X6.7Y1.0
X6.8Y1.0
X6.9Y1.0
X5.9Y-2.0
X6.0Y-2.0
X6.1Y-2.0
X5.9Y-0.2
X6.0Y-0.2
X6.1Y-0.2
X5.1Y1.6
X5.2Y1.6
X5.3Y1.6
X5.9Y-3.8
X6.0Y-3.8
X6.1Y-3.8
X6.7Y1.6
X6.8Y1.6
X6.9Y1.6
T8
X4.7Y1.1476
X5.7Y1.1476
X5.5Y-1.2524
X6.5Y-1.2524
X5.5Y-4.2524
X6.5Y-4.2524
X5.5Y0.5476
X6.5Y0.5476
X5.5Y-2.4524
X6.5Y-2.4524
X5.5Y-3.0524
X6.5Y-3.0524
X5.5Y-0.6524
X6.5Y-0.6524
X6.3Y1.1476
X7.3Y1.1476
X5.5Y-1.8524
X6.5Y-1.8524
X5.5Y-0.0524
X6.5Y-0.0524
X4.7Y1.7476
X5.7Y1.7476
X5.5Y-3.6524
X6.5Y-3.6524
X6.3Y1.7476
X7.3Y1.7476
T9
X3.9Y1.6
X3.9Y-4.8
X8.1Y1.6
X8.1Y-4.8
T10
X7.7Y-5.05
X7.9Y1.15
X4.1Y1.15
X6.95Y-5.05
T0
M30
