G04 #@! TF.GenerationSoftware,KiCad,Pcbnew,(5.1.4)-1*
G04 #@! TF.CreationDate,2019-10-05T20:51:56-04:00*
G04 #@! TF.ProjectId,Fusion Cell Emulator,46757369-6f6e-4204-9365-6c6c20456d75,rev?*
G04 #@! TF.SameCoordinates,Original*
G04 #@! TF.FileFunction,Legend,Bot*
G04 #@! TF.FilePolarity,Positive*
%FSLAX46Y46*%
G04 Gerber Fmt 4.6, Leading zero omitted, Abs format (unit mm)*
G04 Created by KiCad (PCBNEW (5.1.4)-1) date 2019-10-05 20:51:56*
%MOMM*%
%LPD*%
G04 APERTURE LIST*
%ADD10C,0.381000*%
%ADD11C,0.635000*%
%ADD12C,0.254000*%
G04 APERTURE END LIST*
D10*
X160857595Y-134731880D02*
X160857595Y-133080880D01*
X160150023Y-134653261D02*
X159992785Y-134731880D01*
X159678309Y-134731880D01*
X159521071Y-134653261D01*
X159442452Y-134496023D01*
X159442452Y-134417404D01*
X159521071Y-134260166D01*
X159678309Y-134181547D01*
X159914166Y-134181547D01*
X160071404Y-134102928D01*
X160150023Y-133945690D01*
X160150023Y-133867071D01*
X160071404Y-133709833D01*
X159914166Y-133631214D01*
X159678309Y-133631214D01*
X159521071Y-133709833D01*
X158734880Y-134731880D02*
X158734880Y-133080880D01*
X158027309Y-134731880D02*
X158027309Y-133867071D01*
X158105928Y-133709833D01*
X158263166Y-133631214D01*
X158499023Y-133631214D01*
X158656261Y-133709833D01*
X158734880Y-133788452D01*
X156533547Y-134731880D02*
X156533547Y-133867071D01*
X156612166Y-133709833D01*
X156769404Y-133631214D01*
X157083880Y-133631214D01*
X157241119Y-133709833D01*
X156533547Y-134653261D02*
X156690785Y-134731880D01*
X157083880Y-134731880D01*
X157241119Y-134653261D01*
X157319738Y-134496023D01*
X157319738Y-134338785D01*
X157241119Y-134181547D01*
X157083880Y-134102928D01*
X156690785Y-134102928D01*
X156533547Y-134024309D01*
X155039785Y-134731880D02*
X155039785Y-133867071D01*
X155118404Y-133709833D01*
X155275642Y-133631214D01*
X155590119Y-133631214D01*
X155747357Y-133709833D01*
X155039785Y-134653261D02*
X155197023Y-134731880D01*
X155590119Y-134731880D01*
X155747357Y-134653261D01*
X155825976Y-134496023D01*
X155825976Y-134338785D01*
X155747357Y-134181547D01*
X155590119Y-134102928D01*
X155197023Y-134102928D01*
X155039785Y-134024309D01*
X154253595Y-133631214D02*
X154253595Y-134731880D01*
X154253595Y-133788452D02*
X154174976Y-133709833D01*
X154017738Y-133631214D01*
X153781880Y-133631214D01*
X153624642Y-133709833D01*
X153546023Y-133867071D01*
X153546023Y-134731880D01*
X150637119Y-133159500D02*
X150794357Y-133080880D01*
X151030214Y-133080880D01*
X151266071Y-133159500D01*
X151423309Y-133316738D01*
X151501928Y-133473976D01*
X151580547Y-133788452D01*
X151580547Y-134024309D01*
X151501928Y-134338785D01*
X151423309Y-134496023D01*
X151266071Y-134653261D01*
X151030214Y-134731880D01*
X150872976Y-134731880D01*
X150637119Y-134653261D01*
X150558500Y-134574642D01*
X150558500Y-134024309D01*
X150872976Y-134024309D01*
X149615071Y-134731880D02*
X149772309Y-134653261D01*
X149850928Y-134574642D01*
X149929547Y-134417404D01*
X149929547Y-133945690D01*
X149850928Y-133788452D01*
X149772309Y-133709833D01*
X149615071Y-133631214D01*
X149379214Y-133631214D01*
X149221976Y-133709833D01*
X149143357Y-133788452D01*
X149064738Y-133945690D01*
X149064738Y-134417404D01*
X149143357Y-134574642D01*
X149221976Y-134653261D01*
X149379214Y-134731880D01*
X149615071Y-134731880D01*
X148514404Y-133631214D02*
X148121309Y-134731880D01*
X147728214Y-133631214D01*
X139237357Y-133080880D02*
X138922880Y-133080880D01*
X138765642Y-133159500D01*
X138608404Y-133316738D01*
X138529785Y-133631214D01*
X138529785Y-134181547D01*
X138608404Y-134496023D01*
X138765642Y-134653261D01*
X138922880Y-134731880D01*
X139237357Y-134731880D01*
X139394595Y-134653261D01*
X139551833Y-134496023D01*
X139630452Y-134181547D01*
X139630452Y-133631214D01*
X139551833Y-133316738D01*
X139394595Y-133159500D01*
X139237357Y-133080880D01*
X137114642Y-134653261D02*
X137271880Y-134731880D01*
X137586357Y-134731880D01*
X137743595Y-134653261D01*
X137822214Y-134574642D01*
X137900833Y-134417404D01*
X137900833Y-133945690D01*
X137822214Y-133788452D01*
X137743595Y-133709833D01*
X137586357Y-133631214D01*
X137271880Y-133631214D01*
X137114642Y-133709833D01*
X136642928Y-133631214D02*
X136013976Y-133631214D01*
X136407071Y-133080880D02*
X136407071Y-134496023D01*
X136328452Y-134653261D01*
X136171214Y-134731880D01*
X136013976Y-134731880D01*
X134284357Y-133238119D02*
X134205738Y-133159500D01*
X134048500Y-133080880D01*
X133655404Y-133080880D01*
X133498166Y-133159500D01*
X133419547Y-133238119D01*
X133340928Y-133395357D01*
X133340928Y-133552595D01*
X133419547Y-133788452D01*
X134362976Y-134731880D01*
X133340928Y-134731880D01*
X132318880Y-133080880D02*
X132161642Y-133080880D01*
X132004404Y-133159500D01*
X131925785Y-133238119D01*
X131847166Y-133395357D01*
X131768547Y-133709833D01*
X131768547Y-134102928D01*
X131847166Y-134417404D01*
X131925785Y-134574642D01*
X132004404Y-134653261D01*
X132161642Y-134731880D01*
X132318880Y-134731880D01*
X132476119Y-134653261D01*
X132554738Y-134574642D01*
X132633357Y-134417404D01*
X132711976Y-134102928D01*
X132711976Y-133709833D01*
X132633357Y-133395357D01*
X132554738Y-133238119D01*
X132476119Y-133159500D01*
X132318880Y-133080880D01*
X130196166Y-134731880D02*
X131139595Y-134731880D01*
X130667880Y-134731880D02*
X130667880Y-133080880D01*
X130825119Y-133316738D01*
X130982357Y-133473976D01*
X131139595Y-133552595D01*
X129409976Y-134731880D02*
X129095500Y-134731880D01*
X128938261Y-134653261D01*
X128859642Y-134574642D01*
X128702404Y-134338785D01*
X128623785Y-134024309D01*
X128623785Y-133395357D01*
X128702404Y-133238119D01*
X128781023Y-133159500D01*
X128938261Y-133080880D01*
X129252738Y-133080880D01*
X129409976Y-133159500D01*
X129488595Y-133238119D01*
X129567214Y-133395357D01*
X129567214Y-133788452D01*
X129488595Y-133945690D01*
X129409976Y-134024309D01*
X129252738Y-134102928D01*
X128938261Y-134102928D01*
X128781023Y-134024309D01*
X128702404Y-133945690D01*
X128623785Y-133788452D01*
D11*
X158387142Y-131898571D02*
X160564285Y-131898571D01*
X159475714Y-131898571D02*
X159475714Y-128088571D01*
X159838571Y-128632857D01*
X160201428Y-128995714D01*
X160564285Y-129177142D01*
X156028571Y-128088571D02*
X155665714Y-128088571D01*
X155302857Y-128270000D01*
X155121428Y-128451428D01*
X154940000Y-128814285D01*
X154758571Y-129540000D01*
X154758571Y-130447142D01*
X154940000Y-131172857D01*
X155121428Y-131535714D01*
X155302857Y-131717142D01*
X155665714Y-131898571D01*
X156028571Y-131898571D01*
X156391428Y-131717142D01*
X156572857Y-131535714D01*
X156754285Y-131172857D01*
X156935714Y-130447142D01*
X156935714Y-129540000D01*
X156754285Y-128814285D01*
X156572857Y-128451428D01*
X156391428Y-128270000D01*
X156028571Y-128088571D01*
X153307142Y-131717142D02*
X152944285Y-131898571D01*
X152218571Y-131898571D01*
X151855714Y-131717142D01*
X151674285Y-131354285D01*
X151674285Y-131172857D01*
X151855714Y-130810000D01*
X152218571Y-130628571D01*
X152762857Y-130628571D01*
X153125714Y-130447142D01*
X153307142Y-130084285D01*
X153307142Y-129902857D01*
X153125714Y-129540000D01*
X152762857Y-129358571D01*
X152218571Y-129358571D01*
X151855714Y-129540000D01*
X147320000Y-131717142D02*
X146775714Y-131898571D01*
X145868571Y-131898571D01*
X145505714Y-131717142D01*
X145324285Y-131535714D01*
X145142857Y-131172857D01*
X145142857Y-130810000D01*
X145324285Y-130447142D01*
X145505714Y-130265714D01*
X145868571Y-130084285D01*
X146594285Y-129902857D01*
X146957142Y-129721428D01*
X147138571Y-129540000D01*
X147320000Y-129177142D01*
X147320000Y-128814285D01*
X147138571Y-128451428D01*
X146957142Y-128270000D01*
X146594285Y-128088571D01*
X145687142Y-128088571D01*
X145142857Y-128270000D01*
X144054285Y-129358571D02*
X142602857Y-129358571D01*
X143510000Y-128088571D02*
X143510000Y-131354285D01*
X143328571Y-131717142D01*
X142965714Y-131898571D01*
X142602857Y-131898571D01*
X139700000Y-131898571D02*
X139700000Y-129902857D01*
X139881428Y-129540000D01*
X140244285Y-129358571D01*
X140970000Y-129358571D01*
X141332857Y-129540000D01*
X139700000Y-131717142D02*
X140062857Y-131898571D01*
X140970000Y-131898571D01*
X141332857Y-131717142D01*
X141514285Y-131354285D01*
X141514285Y-130991428D01*
X141332857Y-130628571D01*
X140970000Y-130447142D01*
X140062857Y-130447142D01*
X139700000Y-130265714D01*
X136252857Y-131717142D02*
X136615714Y-131898571D01*
X137341428Y-131898571D01*
X137704285Y-131717142D01*
X137885714Y-131535714D01*
X138067142Y-131172857D01*
X138067142Y-130084285D01*
X137885714Y-129721428D01*
X137704285Y-129540000D01*
X137341428Y-129358571D01*
X136615714Y-129358571D01*
X136252857Y-129540000D01*
X134620000Y-131898571D02*
X134620000Y-128088571D01*
X134257142Y-130447142D02*
X133168571Y-131898571D01*
X133168571Y-129358571D02*
X134620000Y-130810000D01*
X128632857Y-129902857D02*
X127362857Y-129902857D01*
X126818571Y-131898571D02*
X128632857Y-131898571D01*
X128632857Y-128088571D01*
X126818571Y-128088571D01*
X125185714Y-131898571D02*
X125185714Y-129358571D01*
X125185714Y-129721428D02*
X125004285Y-129540000D01*
X124641428Y-129358571D01*
X124097142Y-129358571D01*
X123734285Y-129540000D01*
X123552857Y-129902857D01*
X123552857Y-131898571D01*
X123552857Y-129902857D02*
X123371428Y-129540000D01*
X123008571Y-129358571D01*
X122464285Y-129358571D01*
X122101428Y-129540000D01*
X121920000Y-129902857D01*
X121920000Y-131898571D01*
X118472857Y-129358571D02*
X118472857Y-131898571D01*
X120105714Y-129358571D02*
X120105714Y-131354285D01*
X119924285Y-131717142D01*
X119561428Y-131898571D01*
X119017142Y-131898571D01*
X118654285Y-131717142D01*
X118472857Y-131535714D01*
X116114285Y-131898571D02*
X116477142Y-131717142D01*
X116658571Y-131354285D01*
X116658571Y-128088571D01*
X113030000Y-131898571D02*
X113030000Y-129902857D01*
X113211428Y-129540000D01*
X113574285Y-129358571D01*
X114300000Y-129358571D01*
X114662857Y-129540000D01*
X113030000Y-131717142D02*
X113392857Y-131898571D01*
X114300000Y-131898571D01*
X114662857Y-131717142D01*
X114844285Y-131354285D01*
X114844285Y-130991428D01*
X114662857Y-130628571D01*
X114300000Y-130447142D01*
X113392857Y-130447142D01*
X113030000Y-130265714D01*
X111760000Y-129358571D02*
X110308571Y-129358571D01*
X111215714Y-128088571D02*
X111215714Y-131354285D01*
X111034285Y-131717142D01*
X110671428Y-131898571D01*
X110308571Y-131898571D01*
X108494285Y-131898571D02*
X108857142Y-131717142D01*
X109038571Y-131535714D01*
X109220000Y-131172857D01*
X109220000Y-130084285D01*
X109038571Y-129721428D01*
X108857142Y-129540000D01*
X108494285Y-129358571D01*
X107950000Y-129358571D01*
X107587142Y-129540000D01*
X107405714Y-129721428D01*
X107224285Y-130084285D01*
X107224285Y-131172857D01*
X107405714Y-131535714D01*
X107587142Y-131717142D01*
X107950000Y-131898571D01*
X108494285Y-131898571D01*
X105591428Y-131898571D02*
X105591428Y-129358571D01*
X105591428Y-130084285D02*
X105410000Y-129721428D01*
X105228571Y-129540000D01*
X104865714Y-129358571D01*
X104502857Y-129358571D01*
D12*
G04 #@! TO.C,RV10*
X204160000Y-104140000D02*
G75*
G03X204160000Y-104140000I-3500000J0D01*
G01*
X202719999Y-95841874D02*
X201941777Y-98976722D01*
X206159999Y-97593818D02*
G75*
G03X202719999Y-95841874I-5499999J-6546182D01*
G01*
X206160000Y-110686182D02*
X206160000Y-97593818D01*
X202720000Y-112438126D02*
G75*
G03X206160000Y-110686182I-2060000J8298126D01*
G01*
X201941777Y-109303278D02*
X202719999Y-112438126D01*
X201941778Y-109303277D02*
G75*
G03X201941777Y-98976722I-1281778J5163277D01*
G01*
X195160000Y-97593818D02*
X195160001Y-110686182D01*
X198600000Y-95841874D02*
G75*
G03X195160000Y-97593818I2060000J-8298126D01*
G01*
X199378223Y-98976722D02*
X198600001Y-95841874D01*
X199378222Y-98976721D02*
G75*
G03X195964002Y-101640000I1281778J-5163279D01*
G01*
X195340000Y-101640000D02*
X195964002Y-101640000D01*
X195340001Y-106640000D02*
X195340000Y-101640000D01*
X195964002Y-106640000D02*
X195340001Y-106640000D01*
X195964003Y-106640000D02*
G75*
G03X199378223Y-109303278I4695997J2500000D01*
G01*
X198600000Y-112438126D02*
X199378223Y-109303278D01*
X195160000Y-110686182D02*
G75*
G03X198600000Y-112438126I5500000J6546182D01*
G01*
X195964002Y-101640001D02*
X195340000Y-101640000D01*
X195964003Y-106640000D02*
G75*
G03X195964002Y-101640001I4695997J2500000D01*
G01*
X195340001Y-106640000D02*
X195964002Y-106640000D01*
X195340000Y-101640000D02*
X195340001Y-106640000D01*
X189660000Y-111690000D02*
X196647520Y-111689999D01*
X189160000Y-111190000D02*
X189660000Y-111690000D01*
X189160000Y-110998000D02*
X189160000Y-111190000D01*
X189160000Y-97090001D02*
X189160000Y-97282000D01*
X189660001Y-96590001D02*
X189160000Y-97090001D01*
X196647520Y-96590001D02*
X189660001Y-96590001D01*
X202720000Y-112438125D02*
G75*
G03X206159999Y-97593818I-2060000J8298125D01*
G01*
G04 #@! TO.C,RV9*
X107640000Y-104140000D02*
G75*
G03X107640000Y-104140000I-3500000J0D01*
G01*
X102080001Y-112438126D02*
X102858223Y-109303278D01*
X98640001Y-110686182D02*
G75*
G03X102080001Y-112438126I5499999J6546182D01*
G01*
X98640000Y-97593818D02*
X98640000Y-110686182D01*
X102080000Y-95841874D02*
G75*
G03X98640000Y-97593818I2060000J-8298126D01*
G01*
X102858223Y-98976722D02*
X102080001Y-95841874D01*
X102858222Y-98976723D02*
G75*
G03X102858223Y-109303278I1281778J-5163277D01*
G01*
X109640000Y-110686182D02*
X109639999Y-97593818D01*
X106200000Y-112438126D02*
G75*
G03X109640000Y-110686182I-2060000J8298126D01*
G01*
X105421777Y-109303278D02*
X106199999Y-112438126D01*
X105421778Y-109303279D02*
G75*
G03X108835998Y-106640000I-1281778J5163279D01*
G01*
X109460000Y-106640000D02*
X108835998Y-106640000D01*
X109459999Y-101640000D02*
X109460000Y-106640000D01*
X108835998Y-101640000D02*
X109459999Y-101640000D01*
X108835997Y-101640000D02*
G75*
G03X105421777Y-98976722I-4695997J-2500000D01*
G01*
X106200000Y-95841874D02*
X105421777Y-98976722D01*
X109640000Y-97593818D02*
G75*
G03X106200000Y-95841874I-5500000J-6546182D01*
G01*
X108835998Y-106639999D02*
X109460000Y-106640000D01*
X108835997Y-101640000D02*
G75*
G03X108835998Y-106639999I-4695997J-2500000D01*
G01*
X109459999Y-101640000D02*
X108835998Y-101640000D01*
X109460000Y-106640000D02*
X109459999Y-101640000D01*
X115140000Y-96590000D02*
X108152480Y-96590001D01*
X115640000Y-97090000D02*
X115140000Y-96590000D01*
X115640000Y-97282000D02*
X115640000Y-97090000D01*
X115640000Y-111189999D02*
X115640000Y-110998000D01*
X115139999Y-111689999D02*
X115640000Y-111189999D01*
X108152480Y-111689999D02*
X115139999Y-111689999D01*
X102080000Y-95841875D02*
G75*
G03X98640001Y-110686182I2060000J-8298125D01*
G01*
G04 #@! TO.C,RV8*
X204160000Y-76200000D02*
G75*
G03X204160000Y-76200000I-3500000J0D01*
G01*
X202719999Y-67901874D02*
X201941777Y-71036722D01*
X206159999Y-69653818D02*
G75*
G03X202719999Y-67901874I-5499999J-6546182D01*
G01*
X206160000Y-82746182D02*
X206160000Y-69653818D01*
X202720000Y-84498126D02*
G75*
G03X206160000Y-82746182I-2060000J8298126D01*
G01*
X201941777Y-81363278D02*
X202719999Y-84498126D01*
X201941778Y-81363277D02*
G75*
G03X201941777Y-71036722I-1281778J5163277D01*
G01*
X195160000Y-69653818D02*
X195160001Y-82746182D01*
X198600000Y-67901874D02*
G75*
G03X195160000Y-69653818I2060000J-8298126D01*
G01*
X199378223Y-71036722D02*
X198600001Y-67901874D01*
X199378222Y-71036721D02*
G75*
G03X195964002Y-73700000I1281778J-5163279D01*
G01*
X195340000Y-73700000D02*
X195964002Y-73700000D01*
X195340001Y-78700000D02*
X195340000Y-73700000D01*
X195964002Y-78700000D02*
X195340001Y-78700000D01*
X195964003Y-78700000D02*
G75*
G03X199378223Y-81363278I4695997J2500000D01*
G01*
X198600000Y-84498126D02*
X199378223Y-81363278D01*
X195160000Y-82746182D02*
G75*
G03X198600000Y-84498126I5500000J6546182D01*
G01*
X195964002Y-73700001D02*
X195340000Y-73700000D01*
X195964003Y-78700000D02*
G75*
G03X195964002Y-73700001I4695997J2500000D01*
G01*
X195340001Y-78700000D02*
X195964002Y-78700000D01*
X195340000Y-73700000D02*
X195340001Y-78700000D01*
X189660000Y-83750000D02*
X196647520Y-83749999D01*
X189160000Y-83250000D02*
X189660000Y-83750000D01*
X189160000Y-83058000D02*
X189160000Y-83250000D01*
X189160000Y-69150001D02*
X189160000Y-69342000D01*
X189660001Y-68650001D02*
X189160000Y-69150001D01*
X196647520Y-68650001D02*
X189660001Y-68650001D01*
X202720000Y-84498125D02*
G75*
G03X206159999Y-69653818I-2060000J8298125D01*
G01*
G04 #@! TO.C,RV7*
X107640000Y-76200000D02*
G75*
G03X107640000Y-76200000I-3500000J0D01*
G01*
X102080001Y-84498126D02*
X102858223Y-81363278D01*
X98640001Y-82746182D02*
G75*
G03X102080001Y-84498126I5499999J6546182D01*
G01*
X98640000Y-69653818D02*
X98640000Y-82746182D01*
X102080000Y-67901874D02*
G75*
G03X98640000Y-69653818I2060000J-8298126D01*
G01*
X102858223Y-71036722D02*
X102080001Y-67901874D01*
X102858222Y-71036723D02*
G75*
G03X102858223Y-81363278I1281778J-5163277D01*
G01*
X109640000Y-82746182D02*
X109639999Y-69653818D01*
X106200000Y-84498126D02*
G75*
G03X109640000Y-82746182I-2060000J8298126D01*
G01*
X105421777Y-81363278D02*
X106199999Y-84498126D01*
X105421778Y-81363279D02*
G75*
G03X108835998Y-78700000I-1281778J5163279D01*
G01*
X109460000Y-78700000D02*
X108835998Y-78700000D01*
X109459999Y-73700000D02*
X109460000Y-78700000D01*
X108835998Y-73700000D02*
X109459999Y-73700000D01*
X108835997Y-73700000D02*
G75*
G03X105421777Y-71036722I-4695997J-2500000D01*
G01*
X106200000Y-67901874D02*
X105421777Y-71036722D01*
X109640000Y-69653818D02*
G75*
G03X106200000Y-67901874I-5500000J-6546182D01*
G01*
X108835998Y-78699999D02*
X109460000Y-78700000D01*
X108835997Y-73700000D02*
G75*
G03X108835998Y-78699999I-4695997J-2500000D01*
G01*
X109459999Y-73700000D02*
X108835998Y-73700000D01*
X109460000Y-78700000D02*
X109459999Y-73700000D01*
X115140000Y-68650000D02*
X108152480Y-68650001D01*
X115640000Y-69150000D02*
X115140000Y-68650000D01*
X115640000Y-69342000D02*
X115640000Y-69150000D01*
X115640000Y-83249999D02*
X115640000Y-83058000D01*
X115139999Y-83749999D02*
X115640000Y-83249999D01*
X108152480Y-83749999D02*
X115139999Y-83749999D01*
X102080000Y-67901875D02*
G75*
G03X98640001Y-82746182I2060000J-8298125D01*
G01*
G04 #@! TO.C,RV6*
X204160000Y-48260000D02*
G75*
G03X204160000Y-48260000I-3500000J0D01*
G01*
X202719999Y-39961874D02*
X201941777Y-43096722D01*
X206159999Y-41713818D02*
G75*
G03X202719999Y-39961874I-5499999J-6546182D01*
G01*
X206160000Y-54806182D02*
X206160000Y-41713818D01*
X202720000Y-56558126D02*
G75*
G03X206160000Y-54806182I-2060000J8298126D01*
G01*
X201941777Y-53423278D02*
X202719999Y-56558126D01*
X201941778Y-53423277D02*
G75*
G03X201941777Y-43096722I-1281778J5163277D01*
G01*
X195160000Y-41713818D02*
X195160001Y-54806182D01*
X198600000Y-39961874D02*
G75*
G03X195160000Y-41713818I2060000J-8298126D01*
G01*
X199378223Y-43096722D02*
X198600001Y-39961874D01*
X199378222Y-43096721D02*
G75*
G03X195964002Y-45760000I1281778J-5163279D01*
G01*
X195340000Y-45760000D02*
X195964002Y-45760000D01*
X195340001Y-50760000D02*
X195340000Y-45760000D01*
X195964002Y-50760000D02*
X195340001Y-50760000D01*
X195964003Y-50760000D02*
G75*
G03X199378223Y-53423278I4695997J2500000D01*
G01*
X198600000Y-56558126D02*
X199378223Y-53423278D01*
X195160000Y-54806182D02*
G75*
G03X198600000Y-56558126I5500000J6546182D01*
G01*
X195964002Y-45760001D02*
X195340000Y-45760000D01*
X195964003Y-50760000D02*
G75*
G03X195964002Y-45760001I4695997J2500000D01*
G01*
X195340001Y-50760000D02*
X195964002Y-50760000D01*
X195340000Y-45760000D02*
X195340001Y-50760000D01*
X189660000Y-55810000D02*
X196647520Y-55809999D01*
X189160000Y-55310000D02*
X189660000Y-55810000D01*
X189160000Y-55118000D02*
X189160000Y-55310000D01*
X189160000Y-41210001D02*
X189160000Y-41402000D01*
X189660001Y-40710001D02*
X189160000Y-41210001D01*
X196647520Y-40710001D02*
X189660001Y-40710001D01*
X202720000Y-56558125D02*
G75*
G03X206159999Y-41713818I-2060000J8298125D01*
G01*
G04 #@! TO.C,RV5*
X107640000Y-48260000D02*
G75*
G03X107640000Y-48260000I-3500000J0D01*
G01*
X102080001Y-56558126D02*
X102858223Y-53423278D01*
X98640001Y-54806182D02*
G75*
G03X102080001Y-56558126I5499999J6546182D01*
G01*
X98640000Y-41713818D02*
X98640000Y-54806182D01*
X102080000Y-39961874D02*
G75*
G03X98640000Y-41713818I2060000J-8298126D01*
G01*
X102858223Y-43096722D02*
X102080001Y-39961874D01*
X102858222Y-43096723D02*
G75*
G03X102858223Y-53423278I1281778J-5163277D01*
G01*
X109640000Y-54806182D02*
X109639999Y-41713818D01*
X106200000Y-56558126D02*
G75*
G03X109640000Y-54806182I-2060000J8298126D01*
G01*
X105421777Y-53423278D02*
X106199999Y-56558126D01*
X105421778Y-53423279D02*
G75*
G03X108835998Y-50760000I-1281778J5163279D01*
G01*
X109460000Y-50760000D02*
X108835998Y-50760000D01*
X109459999Y-45760000D02*
X109460000Y-50760000D01*
X108835998Y-45760000D02*
X109459999Y-45760000D01*
X108835997Y-45760000D02*
G75*
G03X105421777Y-43096722I-4695997J-2500000D01*
G01*
X106200000Y-39961874D02*
X105421777Y-43096722D01*
X109640000Y-41713818D02*
G75*
G03X106200000Y-39961874I-5500000J-6546182D01*
G01*
X108835998Y-50759999D02*
X109460000Y-50760000D01*
X108835997Y-45760000D02*
G75*
G03X108835998Y-50759999I-4695997J-2500000D01*
G01*
X109459999Y-45760000D02*
X108835998Y-45760000D01*
X109460000Y-50760000D02*
X109459999Y-45760000D01*
X115140000Y-40710000D02*
X108152480Y-40710001D01*
X115640000Y-41210000D02*
X115140000Y-40710000D01*
X115640000Y-41402000D02*
X115640000Y-41210000D01*
X115640000Y-55309999D02*
X115640000Y-55118000D01*
X115139999Y-55809999D02*
X115640000Y-55309999D01*
X108152480Y-55809999D02*
X115139999Y-55809999D01*
X102080000Y-39961875D02*
G75*
G03X98640001Y-54806182I2060000J-8298125D01*
G01*
G04 #@! TO.C,RV4*
X204160000Y-20320000D02*
G75*
G03X204160000Y-20320000I-3500000J0D01*
G01*
X202719999Y-12021874D02*
X201941777Y-15156722D01*
X206159999Y-13773818D02*
G75*
G03X202719999Y-12021874I-5499999J-6546182D01*
G01*
X206160000Y-26866182D02*
X206160000Y-13773818D01*
X202720000Y-28618126D02*
G75*
G03X206160000Y-26866182I-2060000J8298126D01*
G01*
X201941777Y-25483278D02*
X202719999Y-28618126D01*
X201941778Y-25483277D02*
G75*
G03X201941777Y-15156722I-1281778J5163277D01*
G01*
X195160000Y-13773818D02*
X195160001Y-26866182D01*
X198600000Y-12021874D02*
G75*
G03X195160000Y-13773818I2060000J-8298126D01*
G01*
X199378223Y-15156722D02*
X198600001Y-12021874D01*
X199378222Y-15156721D02*
G75*
G03X195964002Y-17820000I1281778J-5163279D01*
G01*
X195340000Y-17820000D02*
X195964002Y-17820000D01*
X195340001Y-22820000D02*
X195340000Y-17820000D01*
X195964002Y-22820000D02*
X195340001Y-22820000D01*
X195964003Y-22820000D02*
G75*
G03X199378223Y-25483278I4695997J2500000D01*
G01*
X198600000Y-28618126D02*
X199378223Y-25483278D01*
X195160000Y-26866182D02*
G75*
G03X198600000Y-28618126I5500000J6546182D01*
G01*
X195964002Y-17820001D02*
X195340000Y-17820000D01*
X195964003Y-22820000D02*
G75*
G03X195964002Y-17820001I4695997J2500000D01*
G01*
X195340001Y-22820000D02*
X195964002Y-22820000D01*
X195340000Y-17820000D02*
X195340001Y-22820000D01*
X189660000Y-27870000D02*
X196647520Y-27869999D01*
X189160000Y-27370000D02*
X189660000Y-27870000D01*
X189160000Y-27178000D02*
X189160000Y-27370000D01*
X189160000Y-13270001D02*
X189160000Y-13462000D01*
X189660001Y-12770001D02*
X189160000Y-13270001D01*
X196647520Y-12770001D02*
X189660001Y-12770001D01*
X202720000Y-28618125D02*
G75*
G03X206159999Y-13773818I-2060000J8298125D01*
G01*
G04 #@! TO.C,RV3*
X107640000Y-20320000D02*
G75*
G03X107640000Y-20320000I-3500000J0D01*
G01*
X102080001Y-28618126D02*
X102858223Y-25483278D01*
X98640001Y-26866182D02*
G75*
G03X102080001Y-28618126I5499999J6546182D01*
G01*
X98640000Y-13773818D02*
X98640000Y-26866182D01*
X102080000Y-12021874D02*
G75*
G03X98640000Y-13773818I2060000J-8298126D01*
G01*
X102858223Y-15156722D02*
X102080001Y-12021874D01*
X102858222Y-15156723D02*
G75*
G03X102858223Y-25483278I1281778J-5163277D01*
G01*
X109640000Y-26866182D02*
X109639999Y-13773818D01*
X106200000Y-28618126D02*
G75*
G03X109640000Y-26866182I-2060000J8298126D01*
G01*
X105421777Y-25483278D02*
X106199999Y-28618126D01*
X105421778Y-25483279D02*
G75*
G03X108835998Y-22820000I-1281778J5163279D01*
G01*
X109460000Y-22820000D02*
X108835998Y-22820000D01*
X109459999Y-17820000D02*
X109460000Y-22820000D01*
X108835998Y-17820000D02*
X109459999Y-17820000D01*
X108835997Y-17820000D02*
G75*
G03X105421777Y-15156722I-4695997J-2500000D01*
G01*
X106200000Y-12021874D02*
X105421777Y-15156722D01*
X109640000Y-13773818D02*
G75*
G03X106200000Y-12021874I-5500000J-6546182D01*
G01*
X108835998Y-22819999D02*
X109460000Y-22820000D01*
X108835997Y-17820000D02*
G75*
G03X108835998Y-22819999I-4695997J-2500000D01*
G01*
X109459999Y-17820000D02*
X108835998Y-17820000D01*
X109460000Y-22820000D02*
X109459999Y-17820000D01*
X115140000Y-12770000D02*
X108152480Y-12770001D01*
X115640000Y-13270000D02*
X115140000Y-12770000D01*
X115640000Y-13462000D02*
X115640000Y-13270000D01*
X115640000Y-27369999D02*
X115640000Y-27178000D01*
X115139999Y-27869999D02*
X115640000Y-27369999D01*
X108152480Y-27869999D02*
X115139999Y-27869999D01*
X102080000Y-12021875D02*
G75*
G03X98640001Y-26866182I2060000J-8298125D01*
G01*
G04 #@! TO.C,RV2*
X204160000Y7620000D02*
G75*
G03X204160000Y7620000I-3500000J0D01*
G01*
X202719999Y15918126D02*
X201941777Y12783278D01*
X206159999Y14166182D02*
G75*
G03X202719999Y15918126I-5499999J-6546182D01*
G01*
X206160000Y1073818D02*
X206160000Y14166182D01*
X202720000Y-678126D02*
G75*
G03X206160000Y1073818I-2060000J8298126D01*
G01*
X201941777Y2456722D02*
X202719999Y-678126D01*
X201941778Y2456723D02*
G75*
G03X201941777Y12783278I-1281778J5163277D01*
G01*
X195160000Y14166182D02*
X195160001Y1073818D01*
X198600000Y15918126D02*
G75*
G03X195160000Y14166182I2060000J-8298126D01*
G01*
X199378223Y12783278D02*
X198600001Y15918126D01*
X199378222Y12783279D02*
G75*
G03X195964002Y10120000I1281778J-5163279D01*
G01*
X195340000Y10120000D02*
X195964002Y10120000D01*
X195340001Y5120000D02*
X195340000Y10120000D01*
X195964002Y5120000D02*
X195340001Y5120000D01*
X195964003Y5120000D02*
G75*
G03X199378223Y2456722I4695997J2500000D01*
G01*
X198600000Y-678126D02*
X199378223Y2456722D01*
X195160000Y1073818D02*
G75*
G03X198600000Y-678126I5500000J6546182D01*
G01*
X195964002Y10119999D02*
X195340000Y10120000D01*
X195964003Y5120000D02*
G75*
G03X195964002Y10119999I4695997J2500000D01*
G01*
X195340001Y5120000D02*
X195964002Y5120000D01*
X195340000Y10120000D02*
X195340001Y5120000D01*
X189660000Y70000D02*
X196647520Y70001D01*
X189160000Y570000D02*
X189660000Y70000D01*
X189160000Y762000D02*
X189160000Y570000D01*
X189160000Y14669999D02*
X189160000Y14478000D01*
X189660001Y15169999D02*
X189160000Y14669999D01*
X196647520Y15169999D02*
X189660001Y15169999D01*
X202720000Y-678125D02*
G75*
G03X206159999Y14166182I-2060000J8298125D01*
G01*
G04 #@! TO.C,RV1*
X107640000Y7620000D02*
G75*
G03X107640000Y7620000I-3500000J0D01*
G01*
X102080001Y-678126D02*
X102858223Y2456722D01*
X98640001Y1073818D02*
G75*
G03X102080001Y-678126I5499999J6546182D01*
G01*
X98640000Y14166182D02*
X98640000Y1073818D01*
X102080000Y15918126D02*
G75*
G03X98640000Y14166182I2060000J-8298126D01*
G01*
X102858223Y12783278D02*
X102080001Y15918126D01*
X102858222Y12783277D02*
G75*
G03X102858223Y2456722I1281778J-5163277D01*
G01*
X109640000Y1073818D02*
X109639999Y14166182D01*
X106200000Y-678126D02*
G75*
G03X109640000Y1073818I-2060000J8298126D01*
G01*
X105421777Y2456722D02*
X106199999Y-678126D01*
X105421778Y2456721D02*
G75*
G03X108835998Y5120000I-1281778J5163279D01*
G01*
X109460000Y5120000D02*
X108835998Y5120000D01*
X109459999Y10120000D02*
X109460000Y5120000D01*
X108835998Y10120000D02*
X109459999Y10120000D01*
X108835997Y10120000D02*
G75*
G03X105421777Y12783278I-4695997J-2500000D01*
G01*
X106200000Y15918126D02*
X105421777Y12783278D01*
X109640000Y14166182D02*
G75*
G03X106200000Y15918126I-5500000J-6546182D01*
G01*
X108835998Y5120001D02*
X109460000Y5120000D01*
X108835997Y10120000D02*
G75*
G03X108835998Y5120001I-4695997J-2500000D01*
G01*
X109459999Y10120000D02*
X108835998Y10120000D01*
X109460000Y5120000D02*
X109459999Y10120000D01*
X115140000Y15170000D02*
X108152480Y15169999D01*
X115640000Y14670000D02*
X115140000Y15170000D01*
X115640000Y14478000D02*
X115640000Y14670000D01*
X115640000Y570001D02*
X115640000Y762000D01*
X115139999Y70001D02*
X115640000Y570001D01*
X108152480Y70001D02*
X115139999Y70001D01*
X102080000Y15918125D02*
G75*
G03X98640001Y1073818I2060000J-8298125D01*
G01*
G04 #@! TD*
M02*
