G04 #@! TF.GenerationSoftware,KiCad,Pcbnew,(5.1.4)-1*
G04 #@! TF.CreationDate,2019-10-23T20:28:56-04:00*
G04 #@! TF.ProjectId,Fusion Cell Emulator,46757369-6f6e-4204-9365-6c6c20456d75,rev?*
G04 #@! TF.SameCoordinates,Original*
G04 #@! TF.FileFunction,Legend,Bot*
G04 #@! TF.FilePolarity,Positive*
%FSLAX46Y46*%
G04 Gerber Fmt 4.6, Leading zero omitted, Abs format (unit mm)*
G04 Created by KiCad (PCBNEW (5.1.4)-1) date 2019-10-23 20:28:56*
%MOMM*%
%LPD*%
G04 APERTURE LIST*
%ADD10C,0.381000*%
%ADD11C,0.635000*%
%ADD12C,0.254000*%
%ADD13C,7.476200*%
%ADD14C,7.576200*%
%ADD15C,3.076200*%
%ADD16C,0.100000*%
%ADD17C,11.576200*%
%ADD18C,5.076200*%
%ADD19C,2.276200*%
%ADD20R,2.276200X2.276200*%
%ADD21O,1.676200X1.676200*%
%ADD22C,1.676200*%
%ADD23O,1.776200X1.776200*%
%ADD24R,1.776200X1.776200*%
%ADD25O,1.776200X2.026200*%
%ADD26C,1.776200*%
%ADD27O,2.276200X2.276200*%
%ADD28C,1.876200*%
%ADD29R,1.876200X1.876200*%
%ADD30R,1.676200X1.676200*%
%ADD31C,1.600200*%
G04 APERTURE END LIST*
D10*
X160857595Y-134731880D02*
X160857595Y-133080880D01*
X160150023Y-134653261D02*
X159992785Y-134731880D01*
X159678309Y-134731880D01*
X159521071Y-134653261D01*
X159442452Y-134496023D01*
X159442452Y-134417404D01*
X159521071Y-134260166D01*
X159678309Y-134181547D01*
X159914166Y-134181547D01*
X160071404Y-134102928D01*
X160150023Y-133945690D01*
X160150023Y-133867071D01*
X160071404Y-133709833D01*
X159914166Y-133631214D01*
X159678309Y-133631214D01*
X159521071Y-133709833D01*
X158734880Y-134731880D02*
X158734880Y-133080880D01*
X158027309Y-134731880D02*
X158027309Y-133867071D01*
X158105928Y-133709833D01*
X158263166Y-133631214D01*
X158499023Y-133631214D01*
X158656261Y-133709833D01*
X158734880Y-133788452D01*
X156533547Y-134731880D02*
X156533547Y-133867071D01*
X156612166Y-133709833D01*
X156769404Y-133631214D01*
X157083880Y-133631214D01*
X157241119Y-133709833D01*
X156533547Y-134653261D02*
X156690785Y-134731880D01*
X157083880Y-134731880D01*
X157241119Y-134653261D01*
X157319738Y-134496023D01*
X157319738Y-134338785D01*
X157241119Y-134181547D01*
X157083880Y-134102928D01*
X156690785Y-134102928D01*
X156533547Y-134024309D01*
X155039785Y-134731880D02*
X155039785Y-133867071D01*
X155118404Y-133709833D01*
X155275642Y-133631214D01*
X155590119Y-133631214D01*
X155747357Y-133709833D01*
X155039785Y-134653261D02*
X155197023Y-134731880D01*
X155590119Y-134731880D01*
X155747357Y-134653261D01*
X155825976Y-134496023D01*
X155825976Y-134338785D01*
X155747357Y-134181547D01*
X155590119Y-134102928D01*
X155197023Y-134102928D01*
X155039785Y-134024309D01*
X154253595Y-133631214D02*
X154253595Y-134731880D01*
X154253595Y-133788452D02*
X154174976Y-133709833D01*
X154017738Y-133631214D01*
X153781880Y-133631214D01*
X153624642Y-133709833D01*
X153546023Y-133867071D01*
X153546023Y-134731880D01*
X150637119Y-133159500D02*
X150794357Y-133080880D01*
X151030214Y-133080880D01*
X151266071Y-133159500D01*
X151423309Y-133316738D01*
X151501928Y-133473976D01*
X151580547Y-133788452D01*
X151580547Y-134024309D01*
X151501928Y-134338785D01*
X151423309Y-134496023D01*
X151266071Y-134653261D01*
X151030214Y-134731880D01*
X150872976Y-134731880D01*
X150637119Y-134653261D01*
X150558500Y-134574642D01*
X150558500Y-134024309D01*
X150872976Y-134024309D01*
X149615071Y-134731880D02*
X149772309Y-134653261D01*
X149850928Y-134574642D01*
X149929547Y-134417404D01*
X149929547Y-133945690D01*
X149850928Y-133788452D01*
X149772309Y-133709833D01*
X149615071Y-133631214D01*
X149379214Y-133631214D01*
X149221976Y-133709833D01*
X149143357Y-133788452D01*
X149064738Y-133945690D01*
X149064738Y-134417404D01*
X149143357Y-134574642D01*
X149221976Y-134653261D01*
X149379214Y-134731880D01*
X149615071Y-134731880D01*
X148514404Y-133631214D02*
X148121309Y-134731880D01*
X147728214Y-133631214D01*
X139237357Y-133080880D02*
X138922880Y-133080880D01*
X138765642Y-133159500D01*
X138608404Y-133316738D01*
X138529785Y-133631214D01*
X138529785Y-134181547D01*
X138608404Y-134496023D01*
X138765642Y-134653261D01*
X138922880Y-134731880D01*
X139237357Y-134731880D01*
X139394595Y-134653261D01*
X139551833Y-134496023D01*
X139630452Y-134181547D01*
X139630452Y-133631214D01*
X139551833Y-133316738D01*
X139394595Y-133159500D01*
X139237357Y-133080880D01*
X137114642Y-134653261D02*
X137271880Y-134731880D01*
X137586357Y-134731880D01*
X137743595Y-134653261D01*
X137822214Y-134574642D01*
X137900833Y-134417404D01*
X137900833Y-133945690D01*
X137822214Y-133788452D01*
X137743595Y-133709833D01*
X137586357Y-133631214D01*
X137271880Y-133631214D01*
X137114642Y-133709833D01*
X136642928Y-133631214D02*
X136013976Y-133631214D01*
X136407071Y-133080880D02*
X136407071Y-134496023D01*
X136328452Y-134653261D01*
X136171214Y-134731880D01*
X136013976Y-134731880D01*
X134284357Y-133238119D02*
X134205738Y-133159500D01*
X134048500Y-133080880D01*
X133655404Y-133080880D01*
X133498166Y-133159500D01*
X133419547Y-133238119D01*
X133340928Y-133395357D01*
X133340928Y-133552595D01*
X133419547Y-133788452D01*
X134362976Y-134731880D01*
X133340928Y-134731880D01*
X132318880Y-133080880D02*
X132161642Y-133080880D01*
X132004404Y-133159500D01*
X131925785Y-133238119D01*
X131847166Y-133395357D01*
X131768547Y-133709833D01*
X131768547Y-134102928D01*
X131847166Y-134417404D01*
X131925785Y-134574642D01*
X132004404Y-134653261D01*
X132161642Y-134731880D01*
X132318880Y-134731880D01*
X132476119Y-134653261D01*
X132554738Y-134574642D01*
X132633357Y-134417404D01*
X132711976Y-134102928D01*
X132711976Y-133709833D01*
X132633357Y-133395357D01*
X132554738Y-133238119D01*
X132476119Y-133159500D01*
X132318880Y-133080880D01*
X130196166Y-134731880D02*
X131139595Y-134731880D01*
X130667880Y-134731880D02*
X130667880Y-133080880D01*
X130825119Y-133316738D01*
X130982357Y-133473976D01*
X131139595Y-133552595D01*
X129409976Y-134731880D02*
X129095500Y-134731880D01*
X128938261Y-134653261D01*
X128859642Y-134574642D01*
X128702404Y-134338785D01*
X128623785Y-134024309D01*
X128623785Y-133395357D01*
X128702404Y-133238119D01*
X128781023Y-133159500D01*
X128938261Y-133080880D01*
X129252738Y-133080880D01*
X129409976Y-133159500D01*
X129488595Y-133238119D01*
X129567214Y-133395357D01*
X129567214Y-133788452D01*
X129488595Y-133945690D01*
X129409976Y-134024309D01*
X129252738Y-134102928D01*
X128938261Y-134102928D01*
X128781023Y-134024309D01*
X128702404Y-133945690D01*
X128623785Y-133788452D01*
D11*
X158387142Y-131898571D02*
X160564285Y-131898571D01*
X159475714Y-131898571D02*
X159475714Y-128088571D01*
X159838571Y-128632857D01*
X160201428Y-128995714D01*
X160564285Y-129177142D01*
X156028571Y-128088571D02*
X155665714Y-128088571D01*
X155302857Y-128270000D01*
X155121428Y-128451428D01*
X154940000Y-128814285D01*
X154758571Y-129540000D01*
X154758571Y-130447142D01*
X154940000Y-131172857D01*
X155121428Y-131535714D01*
X155302857Y-131717142D01*
X155665714Y-131898571D01*
X156028571Y-131898571D01*
X156391428Y-131717142D01*
X156572857Y-131535714D01*
X156754285Y-131172857D01*
X156935714Y-130447142D01*
X156935714Y-129540000D01*
X156754285Y-128814285D01*
X156572857Y-128451428D01*
X156391428Y-128270000D01*
X156028571Y-128088571D01*
X153307142Y-131717142D02*
X152944285Y-131898571D01*
X152218571Y-131898571D01*
X151855714Y-131717142D01*
X151674285Y-131354285D01*
X151674285Y-131172857D01*
X151855714Y-130810000D01*
X152218571Y-130628571D01*
X152762857Y-130628571D01*
X153125714Y-130447142D01*
X153307142Y-130084285D01*
X153307142Y-129902857D01*
X153125714Y-129540000D01*
X152762857Y-129358571D01*
X152218571Y-129358571D01*
X151855714Y-129540000D01*
X147320000Y-131717142D02*
X146775714Y-131898571D01*
X145868571Y-131898571D01*
X145505714Y-131717142D01*
X145324285Y-131535714D01*
X145142857Y-131172857D01*
X145142857Y-130810000D01*
X145324285Y-130447142D01*
X145505714Y-130265714D01*
X145868571Y-130084285D01*
X146594285Y-129902857D01*
X146957142Y-129721428D01*
X147138571Y-129540000D01*
X147320000Y-129177142D01*
X147320000Y-128814285D01*
X147138571Y-128451428D01*
X146957142Y-128270000D01*
X146594285Y-128088571D01*
X145687142Y-128088571D01*
X145142857Y-128270000D01*
X144054285Y-129358571D02*
X142602857Y-129358571D01*
X143510000Y-128088571D02*
X143510000Y-131354285D01*
X143328571Y-131717142D01*
X142965714Y-131898571D01*
X142602857Y-131898571D01*
X139700000Y-131898571D02*
X139700000Y-129902857D01*
X139881428Y-129540000D01*
X140244285Y-129358571D01*
X140970000Y-129358571D01*
X141332857Y-129540000D01*
X139700000Y-131717142D02*
X140062857Y-131898571D01*
X140970000Y-131898571D01*
X141332857Y-131717142D01*
X141514285Y-131354285D01*
X141514285Y-130991428D01*
X141332857Y-130628571D01*
X140970000Y-130447142D01*
X140062857Y-130447142D01*
X139700000Y-130265714D01*
X136252857Y-131717142D02*
X136615714Y-131898571D01*
X137341428Y-131898571D01*
X137704285Y-131717142D01*
X137885714Y-131535714D01*
X138067142Y-131172857D01*
X138067142Y-130084285D01*
X137885714Y-129721428D01*
X137704285Y-129540000D01*
X137341428Y-129358571D01*
X136615714Y-129358571D01*
X136252857Y-129540000D01*
X134620000Y-131898571D02*
X134620000Y-128088571D01*
X134257142Y-130447142D02*
X133168571Y-131898571D01*
X133168571Y-129358571D02*
X134620000Y-130810000D01*
X128632857Y-129902857D02*
X127362857Y-129902857D01*
X126818571Y-131898571D02*
X128632857Y-131898571D01*
X128632857Y-128088571D01*
X126818571Y-128088571D01*
X125185714Y-131898571D02*
X125185714Y-129358571D01*
X125185714Y-129721428D02*
X125004285Y-129540000D01*
X124641428Y-129358571D01*
X124097142Y-129358571D01*
X123734285Y-129540000D01*
X123552857Y-129902857D01*
X123552857Y-131898571D01*
X123552857Y-129902857D02*
X123371428Y-129540000D01*
X123008571Y-129358571D01*
X122464285Y-129358571D01*
X122101428Y-129540000D01*
X121920000Y-129902857D01*
X121920000Y-131898571D01*
X118472857Y-129358571D02*
X118472857Y-131898571D01*
X120105714Y-129358571D02*
X120105714Y-131354285D01*
X119924285Y-131717142D01*
X119561428Y-131898571D01*
X119017142Y-131898571D01*
X118654285Y-131717142D01*
X118472857Y-131535714D01*
X116114285Y-131898571D02*
X116477142Y-131717142D01*
X116658571Y-131354285D01*
X116658571Y-128088571D01*
X113030000Y-131898571D02*
X113030000Y-129902857D01*
X113211428Y-129540000D01*
X113574285Y-129358571D01*
X114300000Y-129358571D01*
X114662857Y-129540000D01*
X113030000Y-131717142D02*
X113392857Y-131898571D01*
X114300000Y-131898571D01*
X114662857Y-131717142D01*
X114844285Y-131354285D01*
X114844285Y-130991428D01*
X114662857Y-130628571D01*
X114300000Y-130447142D01*
X113392857Y-130447142D01*
X113030000Y-130265714D01*
X111760000Y-129358571D02*
X110308571Y-129358571D01*
X111215714Y-128088571D02*
X111215714Y-131354285D01*
X111034285Y-131717142D01*
X110671428Y-131898571D01*
X110308571Y-131898571D01*
X108494285Y-131898571D02*
X108857142Y-131717142D01*
X109038571Y-131535714D01*
X109220000Y-131172857D01*
X109220000Y-130084285D01*
X109038571Y-129721428D01*
X108857142Y-129540000D01*
X108494285Y-129358571D01*
X107950000Y-129358571D01*
X107587142Y-129540000D01*
X107405714Y-129721428D01*
X107224285Y-130084285D01*
X107224285Y-131172857D01*
X107405714Y-131535714D01*
X107587142Y-131717142D01*
X107950000Y-131898571D01*
X108494285Y-131898571D01*
X105591428Y-131898571D02*
X105591428Y-129358571D01*
X105591428Y-130084285D02*
X105410000Y-129721428D01*
X105228571Y-129540000D01*
X104865714Y-129358571D01*
X104502857Y-129358571D01*
D12*
G04 #@! TO.C,RV10*
X204160000Y-104140000D02*
G75*
G03X204160000Y-104140000I-3500000J0D01*
G01*
X202719999Y-95841874D02*
X201941777Y-98976722D01*
X206159999Y-97593818D02*
G75*
G03X202719999Y-95841874I-5499999J-6546182D01*
G01*
X206160000Y-110686182D02*
X206160000Y-97593818D01*
X202720000Y-112438126D02*
G75*
G03X206160000Y-110686182I-2060000J8298126D01*
G01*
X201941777Y-109303278D02*
X202719999Y-112438126D01*
X201941778Y-109303277D02*
G75*
G03X201941777Y-98976722I-1281778J5163277D01*
G01*
X195160000Y-97593818D02*
X195160001Y-110686182D01*
X198600000Y-95841874D02*
G75*
G03X195160000Y-97593818I2060000J-8298126D01*
G01*
X199378223Y-98976722D02*
X198600001Y-95841874D01*
X199378222Y-98976721D02*
G75*
G03X195964002Y-101640000I1281778J-5163279D01*
G01*
X195340000Y-101640000D02*
X195964002Y-101640000D01*
X195340001Y-106640000D02*
X195340000Y-101640000D01*
X195964002Y-106640000D02*
X195340001Y-106640000D01*
X195964003Y-106640000D02*
G75*
G03X199378223Y-109303278I4695997J2500000D01*
G01*
X198600000Y-112438126D02*
X199378223Y-109303278D01*
X195160000Y-110686182D02*
G75*
G03X198600000Y-112438126I5500000J6546182D01*
G01*
X195964002Y-101640001D02*
X195340000Y-101640000D01*
X195964003Y-106640000D02*
G75*
G03X195964002Y-101640001I4695997J2500000D01*
G01*
X195340001Y-106640000D02*
X195964002Y-106640000D01*
X195340000Y-101640000D02*
X195340001Y-106640000D01*
X189660000Y-111690000D02*
X196647520Y-111689999D01*
X189160000Y-111190000D02*
X189660000Y-111690000D01*
X189160000Y-110998000D02*
X189160000Y-111190000D01*
X189160000Y-97090001D02*
X189160000Y-97282000D01*
X189660001Y-96590001D02*
X189160000Y-97090001D01*
X196647520Y-96590001D02*
X189660001Y-96590001D01*
X202720000Y-112438125D02*
G75*
G03X206159999Y-97593818I-2060000J8298125D01*
G01*
G04 #@! TO.C,RV6*
X204160000Y-48260000D02*
G75*
G03X204160000Y-48260000I-3500000J0D01*
G01*
X202719999Y-39961874D02*
X201941777Y-43096722D01*
X206159999Y-41713818D02*
G75*
G03X202719999Y-39961874I-5499999J-6546182D01*
G01*
X206160000Y-54806182D02*
X206160000Y-41713818D01*
X202720000Y-56558126D02*
G75*
G03X206160000Y-54806182I-2060000J8298126D01*
G01*
X201941777Y-53423278D02*
X202719999Y-56558126D01*
X201941778Y-53423277D02*
G75*
G03X201941777Y-43096722I-1281778J5163277D01*
G01*
X195160000Y-41713818D02*
X195160001Y-54806182D01*
X198600000Y-39961874D02*
G75*
G03X195160000Y-41713818I2060000J-8298126D01*
G01*
X199378223Y-43096722D02*
X198600001Y-39961874D01*
X199378222Y-43096721D02*
G75*
G03X195964002Y-45760000I1281778J-5163279D01*
G01*
X195340000Y-45760000D02*
X195964002Y-45760000D01*
X195340001Y-50760000D02*
X195340000Y-45760000D01*
X195964002Y-50760000D02*
X195340001Y-50760000D01*
X195964003Y-50760000D02*
G75*
G03X199378223Y-53423278I4695997J2500000D01*
G01*
X198600000Y-56558126D02*
X199378223Y-53423278D01*
X195160000Y-54806182D02*
G75*
G03X198600000Y-56558126I5500000J6546182D01*
G01*
X195964002Y-45760001D02*
X195340000Y-45760000D01*
X195964003Y-50760000D02*
G75*
G03X195964002Y-45760001I4695997J2500000D01*
G01*
X195340001Y-50760000D02*
X195964002Y-50760000D01*
X195340000Y-45760000D02*
X195340001Y-50760000D01*
X189660000Y-55810000D02*
X196647520Y-55809999D01*
X189160000Y-55310000D02*
X189660000Y-55810000D01*
X189160000Y-55118000D02*
X189160000Y-55310000D01*
X189160000Y-41210001D02*
X189160000Y-41402000D01*
X189660001Y-40710001D02*
X189160000Y-41210001D01*
X196647520Y-40710001D02*
X189660001Y-40710001D01*
X202720000Y-56558125D02*
G75*
G03X206159999Y-41713818I-2060000J8298125D01*
G01*
G04 #@! TO.C,RV4*
X204160000Y-20320000D02*
G75*
G03X204160000Y-20320000I-3500000J0D01*
G01*
X202719999Y-12021874D02*
X201941777Y-15156722D01*
X206159999Y-13773818D02*
G75*
G03X202719999Y-12021874I-5499999J-6546182D01*
G01*
X206160000Y-26866182D02*
X206160000Y-13773818D01*
X202720000Y-28618126D02*
G75*
G03X206160000Y-26866182I-2060000J8298126D01*
G01*
X201941777Y-25483278D02*
X202719999Y-28618126D01*
X201941778Y-25483277D02*
G75*
G03X201941777Y-15156722I-1281778J5163277D01*
G01*
X195160000Y-13773818D02*
X195160001Y-26866182D01*
X198600000Y-12021874D02*
G75*
G03X195160000Y-13773818I2060000J-8298126D01*
G01*
X199378223Y-15156722D02*
X198600001Y-12021874D01*
X199378222Y-15156721D02*
G75*
G03X195964002Y-17820000I1281778J-5163279D01*
G01*
X195340000Y-17820000D02*
X195964002Y-17820000D01*
X195340001Y-22820000D02*
X195340000Y-17820000D01*
X195964002Y-22820000D02*
X195340001Y-22820000D01*
X195964003Y-22820000D02*
G75*
G03X199378223Y-25483278I4695997J2500000D01*
G01*
X198600000Y-28618126D02*
X199378223Y-25483278D01*
X195160000Y-26866182D02*
G75*
G03X198600000Y-28618126I5500000J6546182D01*
G01*
X195964002Y-17820001D02*
X195340000Y-17820000D01*
X195964003Y-22820000D02*
G75*
G03X195964002Y-17820001I4695997J2500000D01*
G01*
X195340001Y-22820000D02*
X195964002Y-22820000D01*
X195340000Y-17820000D02*
X195340001Y-22820000D01*
X189660000Y-27870000D02*
X196647520Y-27869999D01*
X189160000Y-27370000D02*
X189660000Y-27870000D01*
X189160000Y-27178000D02*
X189160000Y-27370000D01*
X189160000Y-13270001D02*
X189160000Y-13462000D01*
X189660001Y-12770001D02*
X189160000Y-13270001D01*
X196647520Y-12770001D02*
X189660001Y-12770001D01*
X202720000Y-28618125D02*
G75*
G03X206159999Y-13773818I-2060000J8298125D01*
G01*
G04 #@! TO.C,RV9*
X107640000Y-104140000D02*
G75*
G03X107640000Y-104140000I-3500000J0D01*
G01*
X102080001Y-112438126D02*
X102858223Y-109303278D01*
X98640001Y-110686182D02*
G75*
G03X102080001Y-112438126I5499999J6546182D01*
G01*
X98640000Y-97593818D02*
X98640000Y-110686182D01*
X102080000Y-95841874D02*
G75*
G03X98640000Y-97593818I2060000J-8298126D01*
G01*
X102858223Y-98976722D02*
X102080001Y-95841874D01*
X102858222Y-98976723D02*
G75*
G03X102858223Y-109303278I1281778J-5163277D01*
G01*
X109640000Y-110686182D02*
X109639999Y-97593818D01*
X106200000Y-112438126D02*
G75*
G03X109640000Y-110686182I-2060000J8298126D01*
G01*
X105421777Y-109303278D02*
X106199999Y-112438126D01*
X105421778Y-109303279D02*
G75*
G03X108835998Y-106640000I-1281778J5163279D01*
G01*
X109460000Y-106640000D02*
X108835998Y-106640000D01*
X109459999Y-101640000D02*
X109460000Y-106640000D01*
X108835998Y-101640000D02*
X109459999Y-101640000D01*
X108835997Y-101640000D02*
G75*
G03X105421777Y-98976722I-4695997J-2500000D01*
G01*
X106200000Y-95841874D02*
X105421777Y-98976722D01*
X109640000Y-97593818D02*
G75*
G03X106200000Y-95841874I-5500000J-6546182D01*
G01*
X108835998Y-106639999D02*
X109460000Y-106640000D01*
X108835997Y-101640000D02*
G75*
G03X108835998Y-106639999I-4695997J-2500000D01*
G01*
X109459999Y-101640000D02*
X108835998Y-101640000D01*
X109460000Y-106640000D02*
X109459999Y-101640000D01*
X115140000Y-96590000D02*
X108152480Y-96590001D01*
X115640000Y-97090000D02*
X115140000Y-96590000D01*
X115640000Y-97282000D02*
X115640000Y-97090000D01*
X115640000Y-111189999D02*
X115640000Y-110998000D01*
X115139999Y-111689999D02*
X115640000Y-111189999D01*
X108152480Y-111689999D02*
X115139999Y-111689999D01*
X102080000Y-95841875D02*
G75*
G03X98640001Y-110686182I2060000J-8298125D01*
G01*
G04 #@! TO.C,RV8*
X204160000Y-76200000D02*
G75*
G03X204160000Y-76200000I-3500000J0D01*
G01*
X202719999Y-67901874D02*
X201941777Y-71036722D01*
X206159999Y-69653818D02*
G75*
G03X202719999Y-67901874I-5499999J-6546182D01*
G01*
X206160000Y-82746182D02*
X206160000Y-69653818D01*
X202720000Y-84498126D02*
G75*
G03X206160000Y-82746182I-2060000J8298126D01*
G01*
X201941777Y-81363278D02*
X202719999Y-84498126D01*
X201941778Y-81363277D02*
G75*
G03X201941777Y-71036722I-1281778J5163277D01*
G01*
X195160000Y-69653818D02*
X195160001Y-82746182D01*
X198600000Y-67901874D02*
G75*
G03X195160000Y-69653818I2060000J-8298126D01*
G01*
X199378223Y-71036722D02*
X198600001Y-67901874D01*
X199378222Y-71036721D02*
G75*
G03X195964002Y-73700000I1281778J-5163279D01*
G01*
X195340000Y-73700000D02*
X195964002Y-73700000D01*
X195340001Y-78700000D02*
X195340000Y-73700000D01*
X195964002Y-78700000D02*
X195340001Y-78700000D01*
X195964003Y-78700000D02*
G75*
G03X199378223Y-81363278I4695997J2500000D01*
G01*
X198600000Y-84498126D02*
X199378223Y-81363278D01*
X195160000Y-82746182D02*
G75*
G03X198600000Y-84498126I5500000J6546182D01*
G01*
X195964002Y-73700001D02*
X195340000Y-73700000D01*
X195964003Y-78700000D02*
G75*
G03X195964002Y-73700001I4695997J2500000D01*
G01*
X195340001Y-78700000D02*
X195964002Y-78700000D01*
X195340000Y-73700000D02*
X195340001Y-78700000D01*
X189660000Y-83750000D02*
X196647520Y-83749999D01*
X189160000Y-83250000D02*
X189660000Y-83750000D01*
X189160000Y-83058000D02*
X189160000Y-83250000D01*
X189160000Y-69150001D02*
X189160000Y-69342000D01*
X189660001Y-68650001D02*
X189160000Y-69150001D01*
X196647520Y-68650001D02*
X189660001Y-68650001D01*
X202720000Y-84498125D02*
G75*
G03X206159999Y-69653818I-2060000J8298125D01*
G01*
G04 #@! TO.C,RV7*
X107640000Y-76200000D02*
G75*
G03X107640000Y-76200000I-3500000J0D01*
G01*
X102080001Y-84498126D02*
X102858223Y-81363278D01*
X98640001Y-82746182D02*
G75*
G03X102080001Y-84498126I5499999J6546182D01*
G01*
X98640000Y-69653818D02*
X98640000Y-82746182D01*
X102080000Y-67901874D02*
G75*
G03X98640000Y-69653818I2060000J-8298126D01*
G01*
X102858223Y-71036722D02*
X102080001Y-67901874D01*
X102858222Y-71036723D02*
G75*
G03X102858223Y-81363278I1281778J-5163277D01*
G01*
X109640000Y-82746182D02*
X109639999Y-69653818D01*
X106200000Y-84498126D02*
G75*
G03X109640000Y-82746182I-2060000J8298126D01*
G01*
X105421777Y-81363278D02*
X106199999Y-84498126D01*
X105421778Y-81363279D02*
G75*
G03X108835998Y-78700000I-1281778J5163279D01*
G01*
X109460000Y-78700000D02*
X108835998Y-78700000D01*
X109459999Y-73700000D02*
X109460000Y-78700000D01*
X108835998Y-73700000D02*
X109459999Y-73700000D01*
X108835997Y-73700000D02*
G75*
G03X105421777Y-71036722I-4695997J-2500000D01*
G01*
X106200000Y-67901874D02*
X105421777Y-71036722D01*
X109640000Y-69653818D02*
G75*
G03X106200000Y-67901874I-5500000J-6546182D01*
G01*
X108835998Y-78699999D02*
X109460000Y-78700000D01*
X108835997Y-73700000D02*
G75*
G03X108835998Y-78699999I-4695997J-2500000D01*
G01*
X109459999Y-73700000D02*
X108835998Y-73700000D01*
X109460000Y-78700000D02*
X109459999Y-73700000D01*
X115140000Y-68650000D02*
X108152480Y-68650001D01*
X115640000Y-69150000D02*
X115140000Y-68650000D01*
X115640000Y-69342000D02*
X115640000Y-69150000D01*
X115640000Y-83249999D02*
X115640000Y-83058000D01*
X115139999Y-83749999D02*
X115640000Y-83249999D01*
X108152480Y-83749999D02*
X115139999Y-83749999D01*
X102080000Y-67901875D02*
G75*
G03X98640001Y-82746182I2060000J-8298125D01*
G01*
G04 #@! TO.C,RV5*
X107640000Y-48260000D02*
G75*
G03X107640000Y-48260000I-3500000J0D01*
G01*
X102080001Y-56558126D02*
X102858223Y-53423278D01*
X98640001Y-54806182D02*
G75*
G03X102080001Y-56558126I5499999J6546182D01*
G01*
X98640000Y-41713818D02*
X98640000Y-54806182D01*
X102080000Y-39961874D02*
G75*
G03X98640000Y-41713818I2060000J-8298126D01*
G01*
X102858223Y-43096722D02*
X102080001Y-39961874D01*
X102858222Y-43096723D02*
G75*
G03X102858223Y-53423278I1281778J-5163277D01*
G01*
X109640000Y-54806182D02*
X109639999Y-41713818D01*
X106200000Y-56558126D02*
G75*
G03X109640000Y-54806182I-2060000J8298126D01*
G01*
X105421777Y-53423278D02*
X106199999Y-56558126D01*
X105421778Y-53423279D02*
G75*
G03X108835998Y-50760000I-1281778J5163279D01*
G01*
X109460000Y-50760000D02*
X108835998Y-50760000D01*
X109459999Y-45760000D02*
X109460000Y-50760000D01*
X108835998Y-45760000D02*
X109459999Y-45760000D01*
X108835997Y-45760000D02*
G75*
G03X105421777Y-43096722I-4695997J-2500000D01*
G01*
X106200000Y-39961874D02*
X105421777Y-43096722D01*
X109640000Y-41713818D02*
G75*
G03X106200000Y-39961874I-5500000J-6546182D01*
G01*
X108835998Y-50759999D02*
X109460000Y-50760000D01*
X108835997Y-45760000D02*
G75*
G03X108835998Y-50759999I-4695997J-2500000D01*
G01*
X109459999Y-45760000D02*
X108835998Y-45760000D01*
X109460000Y-50760000D02*
X109459999Y-45760000D01*
X115140000Y-40710000D02*
X108152480Y-40710001D01*
X115640000Y-41210000D02*
X115140000Y-40710000D01*
X115640000Y-41402000D02*
X115640000Y-41210000D01*
X115640000Y-55309999D02*
X115640000Y-55118000D01*
X115139999Y-55809999D02*
X115640000Y-55309999D01*
X108152480Y-55809999D02*
X115139999Y-55809999D01*
X102080000Y-39961875D02*
G75*
G03X98640001Y-54806182I2060000J-8298125D01*
G01*
G04 #@! TO.C,RV3*
X107640000Y-20320000D02*
G75*
G03X107640000Y-20320000I-3500000J0D01*
G01*
X102080001Y-28618126D02*
X102858223Y-25483278D01*
X98640001Y-26866182D02*
G75*
G03X102080001Y-28618126I5499999J6546182D01*
G01*
X98640000Y-13773818D02*
X98640000Y-26866182D01*
X102080000Y-12021874D02*
G75*
G03X98640000Y-13773818I2060000J-8298126D01*
G01*
X102858223Y-15156722D02*
X102080001Y-12021874D01*
X102858222Y-15156723D02*
G75*
G03X102858223Y-25483278I1281778J-5163277D01*
G01*
X109640000Y-26866182D02*
X109639999Y-13773818D01*
X106200000Y-28618126D02*
G75*
G03X109640000Y-26866182I-2060000J8298126D01*
G01*
X105421777Y-25483278D02*
X106199999Y-28618126D01*
X105421778Y-25483279D02*
G75*
G03X108835998Y-22820000I-1281778J5163279D01*
G01*
X109460000Y-22820000D02*
X108835998Y-22820000D01*
X109459999Y-17820000D02*
X109460000Y-22820000D01*
X108835998Y-17820000D02*
X109459999Y-17820000D01*
X108835997Y-17820000D02*
G75*
G03X105421777Y-15156722I-4695997J-2500000D01*
G01*
X106200000Y-12021874D02*
X105421777Y-15156722D01*
X109640000Y-13773818D02*
G75*
G03X106200000Y-12021874I-5500000J-6546182D01*
G01*
X108835998Y-22819999D02*
X109460000Y-22820000D01*
X108835997Y-17820000D02*
G75*
G03X108835998Y-22819999I-4695997J-2500000D01*
G01*
X109459999Y-17820000D02*
X108835998Y-17820000D01*
X109460000Y-22820000D02*
X109459999Y-17820000D01*
X115140000Y-12770000D02*
X108152480Y-12770001D01*
X115640000Y-13270000D02*
X115140000Y-12770000D01*
X115640000Y-13462000D02*
X115640000Y-13270000D01*
X115640000Y-27369999D02*
X115640000Y-27178000D01*
X115139999Y-27869999D02*
X115640000Y-27369999D01*
X108152480Y-27869999D02*
X115139999Y-27869999D01*
X102080000Y-12021875D02*
G75*
G03X98640001Y-26866182I2060000J-8298125D01*
G01*
G04 #@! TO.C,RV2*
X204160000Y7620000D02*
G75*
G03X204160000Y7620000I-3500000J0D01*
G01*
X202719999Y15918126D02*
X201941777Y12783278D01*
X206159999Y14166182D02*
G75*
G03X202719999Y15918126I-5499999J-6546182D01*
G01*
X206160000Y1073818D02*
X206160000Y14166182D01*
X202720000Y-678126D02*
G75*
G03X206160000Y1073818I-2060000J8298126D01*
G01*
X201941777Y2456722D02*
X202719999Y-678126D01*
X201941778Y2456723D02*
G75*
G03X201941777Y12783278I-1281778J5163277D01*
G01*
X195160000Y14166182D02*
X195160001Y1073818D01*
X198600000Y15918126D02*
G75*
G03X195160000Y14166182I2060000J-8298126D01*
G01*
X199378223Y12783278D02*
X198600001Y15918126D01*
X199378222Y12783279D02*
G75*
G03X195964002Y10120000I1281778J-5163279D01*
G01*
X195340000Y10120000D02*
X195964002Y10120000D01*
X195340001Y5120000D02*
X195340000Y10120000D01*
X195964002Y5120000D02*
X195340001Y5120000D01*
X195964003Y5120000D02*
G75*
G03X199378223Y2456722I4695997J2500000D01*
G01*
X198600000Y-678126D02*
X199378223Y2456722D01*
X195160000Y1073818D02*
G75*
G03X198600000Y-678126I5500000J6546182D01*
G01*
X195964002Y10119999D02*
X195340000Y10120000D01*
X195964003Y5120000D02*
G75*
G03X195964002Y10119999I4695997J2500000D01*
G01*
X195340001Y5120000D02*
X195964002Y5120000D01*
X195340000Y10120000D02*
X195340001Y5120000D01*
X189660000Y70000D02*
X196647520Y70001D01*
X189160000Y570000D02*
X189660000Y70000D01*
X189160000Y762000D02*
X189160000Y570000D01*
X189160000Y14669999D02*
X189160000Y14478000D01*
X189660001Y15169999D02*
X189160000Y14669999D01*
X196647520Y15169999D02*
X189660001Y15169999D01*
X202720000Y-678125D02*
G75*
G03X206159999Y14166182I-2060000J8298125D01*
G01*
G04 #@! TO.C,RV1*
X107640000Y7620000D02*
G75*
G03X107640000Y7620000I-3500000J0D01*
G01*
X102080001Y-678126D02*
X102858223Y2456722D01*
X98640001Y1073818D02*
G75*
G03X102080001Y-678126I5499999J6546182D01*
G01*
X98640000Y14166182D02*
X98640000Y1073818D01*
X102080000Y15918126D02*
G75*
G03X98640000Y14166182I2060000J-8298126D01*
G01*
X102858223Y12783278D02*
X102080001Y15918126D01*
X102858222Y12783277D02*
G75*
G03X102858223Y2456722I1281778J-5163277D01*
G01*
X109640000Y1073818D02*
X109639999Y14166182D01*
X106200000Y-678126D02*
G75*
G03X109640000Y1073818I-2060000J8298126D01*
G01*
X105421777Y2456722D02*
X106199999Y-678126D01*
X105421778Y2456721D02*
G75*
G03X108835998Y5120000I-1281778J5163279D01*
G01*
X109460000Y5120000D02*
X108835998Y5120000D01*
X109459999Y10120000D02*
X109460000Y5120000D01*
X108835998Y10120000D02*
X109459999Y10120000D01*
X108835997Y10120000D02*
G75*
G03X105421777Y12783278I-4695997J-2500000D01*
G01*
X106200000Y15918126D02*
X105421777Y12783278D01*
X109640000Y14166182D02*
G75*
G03X106200000Y15918126I-5500000J-6546182D01*
G01*
X108835998Y5120001D02*
X109460000Y5120000D01*
X108835997Y10120000D02*
G75*
G03X108835998Y5120001I-4695997J-2500000D01*
G01*
X109459999Y10120000D02*
X108835998Y10120000D01*
X109460000Y5120000D02*
X109459999Y10120000D01*
X115140000Y15170000D02*
X108152480Y15169999D01*
X115640000Y14670000D02*
X115140000Y15170000D01*
X115640000Y14478000D02*
X115640000Y14670000D01*
X115640000Y570001D02*
X115640000Y762000D01*
X115139999Y70001D02*
X115640000Y570001D01*
X108152480Y70001D02*
X115139999Y70001D01*
X102080000Y15918125D02*
G75*
G03X98640001Y1073818I2060000J-8298125D01*
G01*
G04 #@! TD*
%LPC*%
D13*
G04 #@! TO.C,REF\002A\002A*
X99060000Y-121920000D03*
G04 #@! TD*
G04 #@! TO.C,REF\002A\002A*
X205740000Y-121920000D03*
G04 #@! TD*
G04 #@! TO.C,REF\002A\002A*
X99060000Y40640000D03*
G04 #@! TD*
G04 #@! TO.C,REF\002A\002A*
X205740000Y40640000D03*
G04 #@! TD*
D14*
G04 #@! TO.C,RV10*
X200660000Y-104140000D03*
D15*
X200660000Y-96340000D03*
D16*
G36*
X189670632Y-97523381D02*
G01*
X189700494Y-97527811D01*
X189729777Y-97535146D01*
X189758201Y-97545316D01*
X189785491Y-97558223D01*
X189811385Y-97573743D01*
X189835632Y-97591727D01*
X189858000Y-97612000D01*
X189878273Y-97634368D01*
X189896257Y-97658615D01*
X189911777Y-97684509D01*
X189924684Y-97711799D01*
X189934854Y-97740223D01*
X189942189Y-97769506D01*
X189946619Y-97799368D01*
X189948100Y-97829520D01*
X189948100Y-100290480D01*
X189946619Y-100320632D01*
X189942189Y-100350494D01*
X189934854Y-100379777D01*
X189924684Y-100408201D01*
X189911777Y-100435491D01*
X189896257Y-100461385D01*
X189878273Y-100485632D01*
X189858000Y-100508000D01*
X189835632Y-100528273D01*
X189811385Y-100546257D01*
X189785491Y-100561777D01*
X189758201Y-100574684D01*
X189729777Y-100584854D01*
X189700494Y-100592189D01*
X189670632Y-100596619D01*
X189640480Y-100598100D01*
X184679520Y-100598100D01*
X184649368Y-100596619D01*
X184619506Y-100592189D01*
X184590223Y-100584854D01*
X184561799Y-100574684D01*
X184534509Y-100561777D01*
X184508615Y-100546257D01*
X184484368Y-100528273D01*
X184462000Y-100508000D01*
X184441727Y-100485632D01*
X184423743Y-100461385D01*
X184408223Y-100435491D01*
X184395316Y-100408201D01*
X184385146Y-100379777D01*
X184377811Y-100350494D01*
X184373381Y-100320632D01*
X184371900Y-100290480D01*
X184371900Y-97829520D01*
X184373381Y-97799368D01*
X184377811Y-97769506D01*
X184385146Y-97740223D01*
X184395316Y-97711799D01*
X184408223Y-97684509D01*
X184423743Y-97658615D01*
X184441727Y-97634368D01*
X184462000Y-97612000D01*
X184484368Y-97591727D01*
X184508615Y-97573743D01*
X184534509Y-97558223D01*
X184561799Y-97545316D01*
X184590223Y-97535146D01*
X184619506Y-97527811D01*
X184649368Y-97523381D01*
X184679520Y-97521900D01*
X189640480Y-97521900D01*
X189670632Y-97523381D01*
X189670632Y-97523381D01*
G37*
D15*
X187160000Y-99060000D03*
D16*
G36*
X189670632Y-102603381D02*
G01*
X189700494Y-102607811D01*
X189729777Y-102615146D01*
X189758201Y-102625316D01*
X189785491Y-102638223D01*
X189811385Y-102653743D01*
X189835632Y-102671727D01*
X189858000Y-102692000D01*
X189878273Y-102714368D01*
X189896257Y-102738615D01*
X189911777Y-102764509D01*
X189924684Y-102791799D01*
X189934854Y-102820223D01*
X189942189Y-102849506D01*
X189946619Y-102879368D01*
X189948100Y-102909520D01*
X189948100Y-105370480D01*
X189946619Y-105400632D01*
X189942189Y-105430494D01*
X189934854Y-105459777D01*
X189924684Y-105488201D01*
X189911777Y-105515491D01*
X189896257Y-105541385D01*
X189878273Y-105565632D01*
X189858000Y-105588000D01*
X189835632Y-105608273D01*
X189811385Y-105626257D01*
X189785491Y-105641777D01*
X189758201Y-105654684D01*
X189729777Y-105664854D01*
X189700494Y-105672189D01*
X189670632Y-105676619D01*
X189640480Y-105678100D01*
X184679520Y-105678100D01*
X184649368Y-105676619D01*
X184619506Y-105672189D01*
X184590223Y-105664854D01*
X184561799Y-105654684D01*
X184534509Y-105641777D01*
X184508615Y-105626257D01*
X184484368Y-105608273D01*
X184462000Y-105588000D01*
X184441727Y-105565632D01*
X184423743Y-105541385D01*
X184408223Y-105515491D01*
X184395316Y-105488201D01*
X184385146Y-105459777D01*
X184377811Y-105430494D01*
X184373381Y-105400632D01*
X184371900Y-105370480D01*
X184371900Y-102909520D01*
X184373381Y-102879368D01*
X184377811Y-102849506D01*
X184385146Y-102820223D01*
X184395316Y-102791799D01*
X184408223Y-102764509D01*
X184423743Y-102738615D01*
X184441727Y-102714368D01*
X184462000Y-102692000D01*
X184484368Y-102671727D01*
X184508615Y-102653743D01*
X184534509Y-102638223D01*
X184561799Y-102625316D01*
X184590223Y-102615146D01*
X184619506Y-102607811D01*
X184649368Y-102603381D01*
X184679520Y-102601900D01*
X189640480Y-102601900D01*
X189670632Y-102603381D01*
X189670632Y-102603381D01*
G37*
D15*
X187160000Y-104140000D03*
D16*
G36*
X189670632Y-107683381D02*
G01*
X189700494Y-107687811D01*
X189729777Y-107695146D01*
X189758201Y-107705316D01*
X189785491Y-107718223D01*
X189811385Y-107733743D01*
X189835632Y-107751727D01*
X189858000Y-107772000D01*
X189878273Y-107794368D01*
X189896257Y-107818615D01*
X189911777Y-107844509D01*
X189924684Y-107871799D01*
X189934854Y-107900223D01*
X189942189Y-107929506D01*
X189946619Y-107959368D01*
X189948100Y-107989520D01*
X189948100Y-110450480D01*
X189946619Y-110480632D01*
X189942189Y-110510494D01*
X189934854Y-110539777D01*
X189924684Y-110568201D01*
X189911777Y-110595491D01*
X189896257Y-110621385D01*
X189878273Y-110645632D01*
X189858000Y-110668000D01*
X189835632Y-110688273D01*
X189811385Y-110706257D01*
X189785491Y-110721777D01*
X189758201Y-110734684D01*
X189729777Y-110744854D01*
X189700494Y-110752189D01*
X189670632Y-110756619D01*
X189640480Y-110758100D01*
X184679520Y-110758100D01*
X184649368Y-110756619D01*
X184619506Y-110752189D01*
X184590223Y-110744854D01*
X184561799Y-110734684D01*
X184534509Y-110721777D01*
X184508615Y-110706257D01*
X184484368Y-110688273D01*
X184462000Y-110668000D01*
X184441727Y-110645632D01*
X184423743Y-110621385D01*
X184408223Y-110595491D01*
X184395316Y-110568201D01*
X184385146Y-110539777D01*
X184377811Y-110510494D01*
X184373381Y-110480632D01*
X184371900Y-110450480D01*
X184371900Y-107989520D01*
X184373381Y-107959368D01*
X184377811Y-107929506D01*
X184385146Y-107900223D01*
X184395316Y-107871799D01*
X184408223Y-107844509D01*
X184423743Y-107818615D01*
X184441727Y-107794368D01*
X184462000Y-107772000D01*
X184484368Y-107751727D01*
X184508615Y-107733743D01*
X184534509Y-107718223D01*
X184561799Y-107705316D01*
X184590223Y-107695146D01*
X184619506Y-107687811D01*
X184649368Y-107683381D01*
X184679520Y-107681900D01*
X189640480Y-107681900D01*
X189670632Y-107683381D01*
X189670632Y-107683381D01*
G37*
D15*
X187160000Y-109220000D03*
G04 #@! TD*
D14*
G04 #@! TO.C,RV6*
X200660000Y-48260000D03*
D15*
X200660000Y-40460000D03*
D16*
G36*
X189670632Y-41643381D02*
G01*
X189700494Y-41647811D01*
X189729777Y-41655146D01*
X189758201Y-41665316D01*
X189785491Y-41678223D01*
X189811385Y-41693743D01*
X189835632Y-41711727D01*
X189858000Y-41732000D01*
X189878273Y-41754368D01*
X189896257Y-41778615D01*
X189911777Y-41804509D01*
X189924684Y-41831799D01*
X189934854Y-41860223D01*
X189942189Y-41889506D01*
X189946619Y-41919368D01*
X189948100Y-41949520D01*
X189948100Y-44410480D01*
X189946619Y-44440632D01*
X189942189Y-44470494D01*
X189934854Y-44499777D01*
X189924684Y-44528201D01*
X189911777Y-44555491D01*
X189896257Y-44581385D01*
X189878273Y-44605632D01*
X189858000Y-44628000D01*
X189835632Y-44648273D01*
X189811385Y-44666257D01*
X189785491Y-44681777D01*
X189758201Y-44694684D01*
X189729777Y-44704854D01*
X189700494Y-44712189D01*
X189670632Y-44716619D01*
X189640480Y-44718100D01*
X184679520Y-44718100D01*
X184649368Y-44716619D01*
X184619506Y-44712189D01*
X184590223Y-44704854D01*
X184561799Y-44694684D01*
X184534509Y-44681777D01*
X184508615Y-44666257D01*
X184484368Y-44648273D01*
X184462000Y-44628000D01*
X184441727Y-44605632D01*
X184423743Y-44581385D01*
X184408223Y-44555491D01*
X184395316Y-44528201D01*
X184385146Y-44499777D01*
X184377811Y-44470494D01*
X184373381Y-44440632D01*
X184371900Y-44410480D01*
X184371900Y-41949520D01*
X184373381Y-41919368D01*
X184377811Y-41889506D01*
X184385146Y-41860223D01*
X184395316Y-41831799D01*
X184408223Y-41804509D01*
X184423743Y-41778615D01*
X184441727Y-41754368D01*
X184462000Y-41732000D01*
X184484368Y-41711727D01*
X184508615Y-41693743D01*
X184534509Y-41678223D01*
X184561799Y-41665316D01*
X184590223Y-41655146D01*
X184619506Y-41647811D01*
X184649368Y-41643381D01*
X184679520Y-41641900D01*
X189640480Y-41641900D01*
X189670632Y-41643381D01*
X189670632Y-41643381D01*
G37*
D15*
X187160000Y-43180000D03*
D16*
G36*
X189670632Y-46723381D02*
G01*
X189700494Y-46727811D01*
X189729777Y-46735146D01*
X189758201Y-46745316D01*
X189785491Y-46758223D01*
X189811385Y-46773743D01*
X189835632Y-46791727D01*
X189858000Y-46812000D01*
X189878273Y-46834368D01*
X189896257Y-46858615D01*
X189911777Y-46884509D01*
X189924684Y-46911799D01*
X189934854Y-46940223D01*
X189942189Y-46969506D01*
X189946619Y-46999368D01*
X189948100Y-47029520D01*
X189948100Y-49490480D01*
X189946619Y-49520632D01*
X189942189Y-49550494D01*
X189934854Y-49579777D01*
X189924684Y-49608201D01*
X189911777Y-49635491D01*
X189896257Y-49661385D01*
X189878273Y-49685632D01*
X189858000Y-49708000D01*
X189835632Y-49728273D01*
X189811385Y-49746257D01*
X189785491Y-49761777D01*
X189758201Y-49774684D01*
X189729777Y-49784854D01*
X189700494Y-49792189D01*
X189670632Y-49796619D01*
X189640480Y-49798100D01*
X184679520Y-49798100D01*
X184649368Y-49796619D01*
X184619506Y-49792189D01*
X184590223Y-49784854D01*
X184561799Y-49774684D01*
X184534509Y-49761777D01*
X184508615Y-49746257D01*
X184484368Y-49728273D01*
X184462000Y-49708000D01*
X184441727Y-49685632D01*
X184423743Y-49661385D01*
X184408223Y-49635491D01*
X184395316Y-49608201D01*
X184385146Y-49579777D01*
X184377811Y-49550494D01*
X184373381Y-49520632D01*
X184371900Y-49490480D01*
X184371900Y-47029520D01*
X184373381Y-46999368D01*
X184377811Y-46969506D01*
X184385146Y-46940223D01*
X184395316Y-46911799D01*
X184408223Y-46884509D01*
X184423743Y-46858615D01*
X184441727Y-46834368D01*
X184462000Y-46812000D01*
X184484368Y-46791727D01*
X184508615Y-46773743D01*
X184534509Y-46758223D01*
X184561799Y-46745316D01*
X184590223Y-46735146D01*
X184619506Y-46727811D01*
X184649368Y-46723381D01*
X184679520Y-46721900D01*
X189640480Y-46721900D01*
X189670632Y-46723381D01*
X189670632Y-46723381D01*
G37*
D15*
X187160000Y-48260000D03*
D16*
G36*
X189670632Y-51803381D02*
G01*
X189700494Y-51807811D01*
X189729777Y-51815146D01*
X189758201Y-51825316D01*
X189785491Y-51838223D01*
X189811385Y-51853743D01*
X189835632Y-51871727D01*
X189858000Y-51892000D01*
X189878273Y-51914368D01*
X189896257Y-51938615D01*
X189911777Y-51964509D01*
X189924684Y-51991799D01*
X189934854Y-52020223D01*
X189942189Y-52049506D01*
X189946619Y-52079368D01*
X189948100Y-52109520D01*
X189948100Y-54570480D01*
X189946619Y-54600632D01*
X189942189Y-54630494D01*
X189934854Y-54659777D01*
X189924684Y-54688201D01*
X189911777Y-54715491D01*
X189896257Y-54741385D01*
X189878273Y-54765632D01*
X189858000Y-54788000D01*
X189835632Y-54808273D01*
X189811385Y-54826257D01*
X189785491Y-54841777D01*
X189758201Y-54854684D01*
X189729777Y-54864854D01*
X189700494Y-54872189D01*
X189670632Y-54876619D01*
X189640480Y-54878100D01*
X184679520Y-54878100D01*
X184649368Y-54876619D01*
X184619506Y-54872189D01*
X184590223Y-54864854D01*
X184561799Y-54854684D01*
X184534509Y-54841777D01*
X184508615Y-54826257D01*
X184484368Y-54808273D01*
X184462000Y-54788000D01*
X184441727Y-54765632D01*
X184423743Y-54741385D01*
X184408223Y-54715491D01*
X184395316Y-54688201D01*
X184385146Y-54659777D01*
X184377811Y-54630494D01*
X184373381Y-54600632D01*
X184371900Y-54570480D01*
X184371900Y-52109520D01*
X184373381Y-52079368D01*
X184377811Y-52049506D01*
X184385146Y-52020223D01*
X184395316Y-51991799D01*
X184408223Y-51964509D01*
X184423743Y-51938615D01*
X184441727Y-51914368D01*
X184462000Y-51892000D01*
X184484368Y-51871727D01*
X184508615Y-51853743D01*
X184534509Y-51838223D01*
X184561799Y-51825316D01*
X184590223Y-51815146D01*
X184619506Y-51807811D01*
X184649368Y-51803381D01*
X184679520Y-51801900D01*
X189640480Y-51801900D01*
X189670632Y-51803381D01*
X189670632Y-51803381D01*
G37*
D15*
X187160000Y-53340000D03*
G04 #@! TD*
D14*
G04 #@! TO.C,RV4*
X200660000Y-20320000D03*
D15*
X200660000Y-12520000D03*
D16*
G36*
X189670632Y-13703381D02*
G01*
X189700494Y-13707811D01*
X189729777Y-13715146D01*
X189758201Y-13725316D01*
X189785491Y-13738223D01*
X189811385Y-13753743D01*
X189835632Y-13771727D01*
X189858000Y-13792000D01*
X189878273Y-13814368D01*
X189896257Y-13838615D01*
X189911777Y-13864509D01*
X189924684Y-13891799D01*
X189934854Y-13920223D01*
X189942189Y-13949506D01*
X189946619Y-13979368D01*
X189948100Y-14009520D01*
X189948100Y-16470480D01*
X189946619Y-16500632D01*
X189942189Y-16530494D01*
X189934854Y-16559777D01*
X189924684Y-16588201D01*
X189911777Y-16615491D01*
X189896257Y-16641385D01*
X189878273Y-16665632D01*
X189858000Y-16688000D01*
X189835632Y-16708273D01*
X189811385Y-16726257D01*
X189785491Y-16741777D01*
X189758201Y-16754684D01*
X189729777Y-16764854D01*
X189700494Y-16772189D01*
X189670632Y-16776619D01*
X189640480Y-16778100D01*
X184679520Y-16778100D01*
X184649368Y-16776619D01*
X184619506Y-16772189D01*
X184590223Y-16764854D01*
X184561799Y-16754684D01*
X184534509Y-16741777D01*
X184508615Y-16726257D01*
X184484368Y-16708273D01*
X184462000Y-16688000D01*
X184441727Y-16665632D01*
X184423743Y-16641385D01*
X184408223Y-16615491D01*
X184395316Y-16588201D01*
X184385146Y-16559777D01*
X184377811Y-16530494D01*
X184373381Y-16500632D01*
X184371900Y-16470480D01*
X184371900Y-14009520D01*
X184373381Y-13979368D01*
X184377811Y-13949506D01*
X184385146Y-13920223D01*
X184395316Y-13891799D01*
X184408223Y-13864509D01*
X184423743Y-13838615D01*
X184441727Y-13814368D01*
X184462000Y-13792000D01*
X184484368Y-13771727D01*
X184508615Y-13753743D01*
X184534509Y-13738223D01*
X184561799Y-13725316D01*
X184590223Y-13715146D01*
X184619506Y-13707811D01*
X184649368Y-13703381D01*
X184679520Y-13701900D01*
X189640480Y-13701900D01*
X189670632Y-13703381D01*
X189670632Y-13703381D01*
G37*
D15*
X187160000Y-15240000D03*
D16*
G36*
X189670632Y-18783381D02*
G01*
X189700494Y-18787811D01*
X189729777Y-18795146D01*
X189758201Y-18805316D01*
X189785491Y-18818223D01*
X189811385Y-18833743D01*
X189835632Y-18851727D01*
X189858000Y-18872000D01*
X189878273Y-18894368D01*
X189896257Y-18918615D01*
X189911777Y-18944509D01*
X189924684Y-18971799D01*
X189934854Y-19000223D01*
X189942189Y-19029506D01*
X189946619Y-19059368D01*
X189948100Y-19089520D01*
X189948100Y-21550480D01*
X189946619Y-21580632D01*
X189942189Y-21610494D01*
X189934854Y-21639777D01*
X189924684Y-21668201D01*
X189911777Y-21695491D01*
X189896257Y-21721385D01*
X189878273Y-21745632D01*
X189858000Y-21768000D01*
X189835632Y-21788273D01*
X189811385Y-21806257D01*
X189785491Y-21821777D01*
X189758201Y-21834684D01*
X189729777Y-21844854D01*
X189700494Y-21852189D01*
X189670632Y-21856619D01*
X189640480Y-21858100D01*
X184679520Y-21858100D01*
X184649368Y-21856619D01*
X184619506Y-21852189D01*
X184590223Y-21844854D01*
X184561799Y-21834684D01*
X184534509Y-21821777D01*
X184508615Y-21806257D01*
X184484368Y-21788273D01*
X184462000Y-21768000D01*
X184441727Y-21745632D01*
X184423743Y-21721385D01*
X184408223Y-21695491D01*
X184395316Y-21668201D01*
X184385146Y-21639777D01*
X184377811Y-21610494D01*
X184373381Y-21580632D01*
X184371900Y-21550480D01*
X184371900Y-19089520D01*
X184373381Y-19059368D01*
X184377811Y-19029506D01*
X184385146Y-19000223D01*
X184395316Y-18971799D01*
X184408223Y-18944509D01*
X184423743Y-18918615D01*
X184441727Y-18894368D01*
X184462000Y-18872000D01*
X184484368Y-18851727D01*
X184508615Y-18833743D01*
X184534509Y-18818223D01*
X184561799Y-18805316D01*
X184590223Y-18795146D01*
X184619506Y-18787811D01*
X184649368Y-18783381D01*
X184679520Y-18781900D01*
X189640480Y-18781900D01*
X189670632Y-18783381D01*
X189670632Y-18783381D01*
G37*
D15*
X187160000Y-20320000D03*
D16*
G36*
X189670632Y-23863381D02*
G01*
X189700494Y-23867811D01*
X189729777Y-23875146D01*
X189758201Y-23885316D01*
X189785491Y-23898223D01*
X189811385Y-23913743D01*
X189835632Y-23931727D01*
X189858000Y-23952000D01*
X189878273Y-23974368D01*
X189896257Y-23998615D01*
X189911777Y-24024509D01*
X189924684Y-24051799D01*
X189934854Y-24080223D01*
X189942189Y-24109506D01*
X189946619Y-24139368D01*
X189948100Y-24169520D01*
X189948100Y-26630480D01*
X189946619Y-26660632D01*
X189942189Y-26690494D01*
X189934854Y-26719777D01*
X189924684Y-26748201D01*
X189911777Y-26775491D01*
X189896257Y-26801385D01*
X189878273Y-26825632D01*
X189858000Y-26848000D01*
X189835632Y-26868273D01*
X189811385Y-26886257D01*
X189785491Y-26901777D01*
X189758201Y-26914684D01*
X189729777Y-26924854D01*
X189700494Y-26932189D01*
X189670632Y-26936619D01*
X189640480Y-26938100D01*
X184679520Y-26938100D01*
X184649368Y-26936619D01*
X184619506Y-26932189D01*
X184590223Y-26924854D01*
X184561799Y-26914684D01*
X184534509Y-26901777D01*
X184508615Y-26886257D01*
X184484368Y-26868273D01*
X184462000Y-26848000D01*
X184441727Y-26825632D01*
X184423743Y-26801385D01*
X184408223Y-26775491D01*
X184395316Y-26748201D01*
X184385146Y-26719777D01*
X184377811Y-26690494D01*
X184373381Y-26660632D01*
X184371900Y-26630480D01*
X184371900Y-24169520D01*
X184373381Y-24139368D01*
X184377811Y-24109506D01*
X184385146Y-24080223D01*
X184395316Y-24051799D01*
X184408223Y-24024509D01*
X184423743Y-23998615D01*
X184441727Y-23974368D01*
X184462000Y-23952000D01*
X184484368Y-23931727D01*
X184508615Y-23913743D01*
X184534509Y-23898223D01*
X184561799Y-23885316D01*
X184590223Y-23875146D01*
X184619506Y-23867811D01*
X184649368Y-23863381D01*
X184679520Y-23861900D01*
X189640480Y-23861900D01*
X189670632Y-23863381D01*
X189670632Y-23863381D01*
G37*
D15*
X187160000Y-25400000D03*
G04 #@! TD*
D17*
G04 #@! TO.C,J7*
X176530000Y-128270000D03*
G04 #@! TD*
G04 #@! TO.C,J6*
X195580000Y-128270000D03*
G04 #@! TD*
G04 #@! TO.C,J2*
X200660000Y29210000D03*
G04 #@! TD*
G04 #@! TO.C,J1*
X104140000Y29210000D03*
G04 #@! TD*
D18*
G04 #@! TO.C,U13*
X165100000Y-108010000D03*
X139700000Y-108010000D03*
D19*
X154940000Y-111760000D03*
X152400000Y-111760000D03*
D20*
X149860000Y-111760000D03*
G04 #@! TD*
D18*
G04 #@! TO.C,U12*
X165100000Y-92770000D03*
X139700000Y-92770000D03*
D19*
X154940000Y-96520000D03*
X152400000Y-96520000D03*
D20*
X149860000Y-96520000D03*
G04 #@! TD*
D18*
G04 #@! TO.C,U11*
X165100000Y-77530000D03*
X139700000Y-77530000D03*
D19*
X154940000Y-81280000D03*
X152400000Y-81280000D03*
D20*
X149860000Y-81280000D03*
G04 #@! TD*
D18*
G04 #@! TO.C,U10*
X165100000Y-62290000D03*
X139700000Y-62290000D03*
D19*
X154940000Y-66040000D03*
X152400000Y-66040000D03*
D20*
X149860000Y-66040000D03*
G04 #@! TD*
D18*
G04 #@! TO.C,U9*
X165100000Y-47050000D03*
X139700000Y-47050000D03*
D19*
X154940000Y-50800000D03*
X152400000Y-50800000D03*
D20*
X149860000Y-50800000D03*
G04 #@! TD*
D18*
G04 #@! TO.C,U8*
X165100000Y-31810000D03*
X139700000Y-31810000D03*
D19*
X154940000Y-35560000D03*
X152400000Y-35560000D03*
D20*
X149860000Y-35560000D03*
G04 #@! TD*
D18*
G04 #@! TO.C,U7*
X165100000Y-16570000D03*
X139700000Y-16570000D03*
D19*
X154940000Y-20320000D03*
X152400000Y-20320000D03*
D20*
X149860000Y-20320000D03*
G04 #@! TD*
D18*
G04 #@! TO.C,U6*
X165100000Y-1330000D03*
X139700000Y-1330000D03*
D19*
X154940000Y-5080000D03*
X152400000Y-5080000D03*
D20*
X149860000Y-5080000D03*
G04 #@! TD*
D18*
G04 #@! TO.C,U5*
X165100000Y13910000D03*
X139700000Y13910000D03*
D19*
X154940000Y10160000D03*
X152400000Y10160000D03*
D20*
X149860000Y10160000D03*
G04 #@! TD*
D18*
G04 #@! TO.C,U4*
X144780000Y44390000D03*
X119380000Y44390000D03*
D19*
X134620000Y40640000D03*
X132080000Y40640000D03*
D20*
X129540000Y40640000D03*
G04 #@! TD*
D18*
G04 #@! TO.C,U3*
X144780000Y29150000D03*
X119380000Y29150000D03*
D19*
X134620000Y25400000D03*
X132080000Y25400000D03*
D20*
X129540000Y25400000D03*
G04 #@! TD*
D18*
G04 #@! TO.C,U2*
X185420000Y44390000D03*
X160020000Y44390000D03*
D19*
X175260000Y40640000D03*
X172720000Y40640000D03*
D20*
X170180000Y40640000D03*
G04 #@! TD*
D18*
G04 #@! TO.C,U1*
X185420000Y29150000D03*
X160020000Y29150000D03*
D19*
X175260000Y25400000D03*
X172720000Y25400000D03*
D20*
X170180000Y25400000D03*
G04 #@! TD*
D14*
G04 #@! TO.C,RV9*
X104140000Y-104140000D03*
D15*
X104140000Y-111940000D03*
D16*
G36*
X120150632Y-107683381D02*
G01*
X120180494Y-107687811D01*
X120209777Y-107695146D01*
X120238201Y-107705316D01*
X120265491Y-107718223D01*
X120291385Y-107733743D01*
X120315632Y-107751727D01*
X120338000Y-107772000D01*
X120358273Y-107794368D01*
X120376257Y-107818615D01*
X120391777Y-107844509D01*
X120404684Y-107871799D01*
X120414854Y-107900223D01*
X120422189Y-107929506D01*
X120426619Y-107959368D01*
X120428100Y-107989520D01*
X120428100Y-110450480D01*
X120426619Y-110480632D01*
X120422189Y-110510494D01*
X120414854Y-110539777D01*
X120404684Y-110568201D01*
X120391777Y-110595491D01*
X120376257Y-110621385D01*
X120358273Y-110645632D01*
X120338000Y-110668000D01*
X120315632Y-110688273D01*
X120291385Y-110706257D01*
X120265491Y-110721777D01*
X120238201Y-110734684D01*
X120209777Y-110744854D01*
X120180494Y-110752189D01*
X120150632Y-110756619D01*
X120120480Y-110758100D01*
X115159520Y-110758100D01*
X115129368Y-110756619D01*
X115099506Y-110752189D01*
X115070223Y-110744854D01*
X115041799Y-110734684D01*
X115014509Y-110721777D01*
X114988615Y-110706257D01*
X114964368Y-110688273D01*
X114942000Y-110668000D01*
X114921727Y-110645632D01*
X114903743Y-110621385D01*
X114888223Y-110595491D01*
X114875316Y-110568201D01*
X114865146Y-110539777D01*
X114857811Y-110510494D01*
X114853381Y-110480632D01*
X114851900Y-110450480D01*
X114851900Y-107989520D01*
X114853381Y-107959368D01*
X114857811Y-107929506D01*
X114865146Y-107900223D01*
X114875316Y-107871799D01*
X114888223Y-107844509D01*
X114903743Y-107818615D01*
X114921727Y-107794368D01*
X114942000Y-107772000D01*
X114964368Y-107751727D01*
X114988615Y-107733743D01*
X115014509Y-107718223D01*
X115041799Y-107705316D01*
X115070223Y-107695146D01*
X115099506Y-107687811D01*
X115129368Y-107683381D01*
X115159520Y-107681900D01*
X120120480Y-107681900D01*
X120150632Y-107683381D01*
X120150632Y-107683381D01*
G37*
D15*
X117640000Y-109220000D03*
D16*
G36*
X120150632Y-102603381D02*
G01*
X120180494Y-102607811D01*
X120209777Y-102615146D01*
X120238201Y-102625316D01*
X120265491Y-102638223D01*
X120291385Y-102653743D01*
X120315632Y-102671727D01*
X120338000Y-102692000D01*
X120358273Y-102714368D01*
X120376257Y-102738615D01*
X120391777Y-102764509D01*
X120404684Y-102791799D01*
X120414854Y-102820223D01*
X120422189Y-102849506D01*
X120426619Y-102879368D01*
X120428100Y-102909520D01*
X120428100Y-105370480D01*
X120426619Y-105400632D01*
X120422189Y-105430494D01*
X120414854Y-105459777D01*
X120404684Y-105488201D01*
X120391777Y-105515491D01*
X120376257Y-105541385D01*
X120358273Y-105565632D01*
X120338000Y-105588000D01*
X120315632Y-105608273D01*
X120291385Y-105626257D01*
X120265491Y-105641777D01*
X120238201Y-105654684D01*
X120209777Y-105664854D01*
X120180494Y-105672189D01*
X120150632Y-105676619D01*
X120120480Y-105678100D01*
X115159520Y-105678100D01*
X115129368Y-105676619D01*
X115099506Y-105672189D01*
X115070223Y-105664854D01*
X115041799Y-105654684D01*
X115014509Y-105641777D01*
X114988615Y-105626257D01*
X114964368Y-105608273D01*
X114942000Y-105588000D01*
X114921727Y-105565632D01*
X114903743Y-105541385D01*
X114888223Y-105515491D01*
X114875316Y-105488201D01*
X114865146Y-105459777D01*
X114857811Y-105430494D01*
X114853381Y-105400632D01*
X114851900Y-105370480D01*
X114851900Y-102909520D01*
X114853381Y-102879368D01*
X114857811Y-102849506D01*
X114865146Y-102820223D01*
X114875316Y-102791799D01*
X114888223Y-102764509D01*
X114903743Y-102738615D01*
X114921727Y-102714368D01*
X114942000Y-102692000D01*
X114964368Y-102671727D01*
X114988615Y-102653743D01*
X115014509Y-102638223D01*
X115041799Y-102625316D01*
X115070223Y-102615146D01*
X115099506Y-102607811D01*
X115129368Y-102603381D01*
X115159520Y-102601900D01*
X120120480Y-102601900D01*
X120150632Y-102603381D01*
X120150632Y-102603381D01*
G37*
D15*
X117640000Y-104140000D03*
D16*
G36*
X120150632Y-97523381D02*
G01*
X120180494Y-97527811D01*
X120209777Y-97535146D01*
X120238201Y-97545316D01*
X120265491Y-97558223D01*
X120291385Y-97573743D01*
X120315632Y-97591727D01*
X120338000Y-97612000D01*
X120358273Y-97634368D01*
X120376257Y-97658615D01*
X120391777Y-97684509D01*
X120404684Y-97711799D01*
X120414854Y-97740223D01*
X120422189Y-97769506D01*
X120426619Y-97799368D01*
X120428100Y-97829520D01*
X120428100Y-100290480D01*
X120426619Y-100320632D01*
X120422189Y-100350494D01*
X120414854Y-100379777D01*
X120404684Y-100408201D01*
X120391777Y-100435491D01*
X120376257Y-100461385D01*
X120358273Y-100485632D01*
X120338000Y-100508000D01*
X120315632Y-100528273D01*
X120291385Y-100546257D01*
X120265491Y-100561777D01*
X120238201Y-100574684D01*
X120209777Y-100584854D01*
X120180494Y-100592189D01*
X120150632Y-100596619D01*
X120120480Y-100598100D01*
X115159520Y-100598100D01*
X115129368Y-100596619D01*
X115099506Y-100592189D01*
X115070223Y-100584854D01*
X115041799Y-100574684D01*
X115014509Y-100561777D01*
X114988615Y-100546257D01*
X114964368Y-100528273D01*
X114942000Y-100508000D01*
X114921727Y-100485632D01*
X114903743Y-100461385D01*
X114888223Y-100435491D01*
X114875316Y-100408201D01*
X114865146Y-100379777D01*
X114857811Y-100350494D01*
X114853381Y-100320632D01*
X114851900Y-100290480D01*
X114851900Y-97829520D01*
X114853381Y-97799368D01*
X114857811Y-97769506D01*
X114865146Y-97740223D01*
X114875316Y-97711799D01*
X114888223Y-97684509D01*
X114903743Y-97658615D01*
X114921727Y-97634368D01*
X114942000Y-97612000D01*
X114964368Y-97591727D01*
X114988615Y-97573743D01*
X115014509Y-97558223D01*
X115041799Y-97545316D01*
X115070223Y-97535146D01*
X115099506Y-97527811D01*
X115129368Y-97523381D01*
X115159520Y-97521900D01*
X120120480Y-97521900D01*
X120150632Y-97523381D01*
X120150632Y-97523381D01*
G37*
D15*
X117640000Y-99060000D03*
G04 #@! TD*
D14*
G04 #@! TO.C,RV8*
X200660000Y-76200000D03*
D15*
X200660000Y-68400000D03*
D16*
G36*
X189670632Y-69583381D02*
G01*
X189700494Y-69587811D01*
X189729777Y-69595146D01*
X189758201Y-69605316D01*
X189785491Y-69618223D01*
X189811385Y-69633743D01*
X189835632Y-69651727D01*
X189858000Y-69672000D01*
X189878273Y-69694368D01*
X189896257Y-69718615D01*
X189911777Y-69744509D01*
X189924684Y-69771799D01*
X189934854Y-69800223D01*
X189942189Y-69829506D01*
X189946619Y-69859368D01*
X189948100Y-69889520D01*
X189948100Y-72350480D01*
X189946619Y-72380632D01*
X189942189Y-72410494D01*
X189934854Y-72439777D01*
X189924684Y-72468201D01*
X189911777Y-72495491D01*
X189896257Y-72521385D01*
X189878273Y-72545632D01*
X189858000Y-72568000D01*
X189835632Y-72588273D01*
X189811385Y-72606257D01*
X189785491Y-72621777D01*
X189758201Y-72634684D01*
X189729777Y-72644854D01*
X189700494Y-72652189D01*
X189670632Y-72656619D01*
X189640480Y-72658100D01*
X184679520Y-72658100D01*
X184649368Y-72656619D01*
X184619506Y-72652189D01*
X184590223Y-72644854D01*
X184561799Y-72634684D01*
X184534509Y-72621777D01*
X184508615Y-72606257D01*
X184484368Y-72588273D01*
X184462000Y-72568000D01*
X184441727Y-72545632D01*
X184423743Y-72521385D01*
X184408223Y-72495491D01*
X184395316Y-72468201D01*
X184385146Y-72439777D01*
X184377811Y-72410494D01*
X184373381Y-72380632D01*
X184371900Y-72350480D01*
X184371900Y-69889520D01*
X184373381Y-69859368D01*
X184377811Y-69829506D01*
X184385146Y-69800223D01*
X184395316Y-69771799D01*
X184408223Y-69744509D01*
X184423743Y-69718615D01*
X184441727Y-69694368D01*
X184462000Y-69672000D01*
X184484368Y-69651727D01*
X184508615Y-69633743D01*
X184534509Y-69618223D01*
X184561799Y-69605316D01*
X184590223Y-69595146D01*
X184619506Y-69587811D01*
X184649368Y-69583381D01*
X184679520Y-69581900D01*
X189640480Y-69581900D01*
X189670632Y-69583381D01*
X189670632Y-69583381D01*
G37*
D15*
X187160000Y-71120000D03*
D16*
G36*
X189670632Y-74663381D02*
G01*
X189700494Y-74667811D01*
X189729777Y-74675146D01*
X189758201Y-74685316D01*
X189785491Y-74698223D01*
X189811385Y-74713743D01*
X189835632Y-74731727D01*
X189858000Y-74752000D01*
X189878273Y-74774368D01*
X189896257Y-74798615D01*
X189911777Y-74824509D01*
X189924684Y-74851799D01*
X189934854Y-74880223D01*
X189942189Y-74909506D01*
X189946619Y-74939368D01*
X189948100Y-74969520D01*
X189948100Y-77430480D01*
X189946619Y-77460632D01*
X189942189Y-77490494D01*
X189934854Y-77519777D01*
X189924684Y-77548201D01*
X189911777Y-77575491D01*
X189896257Y-77601385D01*
X189878273Y-77625632D01*
X189858000Y-77648000D01*
X189835632Y-77668273D01*
X189811385Y-77686257D01*
X189785491Y-77701777D01*
X189758201Y-77714684D01*
X189729777Y-77724854D01*
X189700494Y-77732189D01*
X189670632Y-77736619D01*
X189640480Y-77738100D01*
X184679520Y-77738100D01*
X184649368Y-77736619D01*
X184619506Y-77732189D01*
X184590223Y-77724854D01*
X184561799Y-77714684D01*
X184534509Y-77701777D01*
X184508615Y-77686257D01*
X184484368Y-77668273D01*
X184462000Y-77648000D01*
X184441727Y-77625632D01*
X184423743Y-77601385D01*
X184408223Y-77575491D01*
X184395316Y-77548201D01*
X184385146Y-77519777D01*
X184377811Y-77490494D01*
X184373381Y-77460632D01*
X184371900Y-77430480D01*
X184371900Y-74969520D01*
X184373381Y-74939368D01*
X184377811Y-74909506D01*
X184385146Y-74880223D01*
X184395316Y-74851799D01*
X184408223Y-74824509D01*
X184423743Y-74798615D01*
X184441727Y-74774368D01*
X184462000Y-74752000D01*
X184484368Y-74731727D01*
X184508615Y-74713743D01*
X184534509Y-74698223D01*
X184561799Y-74685316D01*
X184590223Y-74675146D01*
X184619506Y-74667811D01*
X184649368Y-74663381D01*
X184679520Y-74661900D01*
X189640480Y-74661900D01*
X189670632Y-74663381D01*
X189670632Y-74663381D01*
G37*
D15*
X187160000Y-76200000D03*
D16*
G36*
X189670632Y-79743381D02*
G01*
X189700494Y-79747811D01*
X189729777Y-79755146D01*
X189758201Y-79765316D01*
X189785491Y-79778223D01*
X189811385Y-79793743D01*
X189835632Y-79811727D01*
X189858000Y-79832000D01*
X189878273Y-79854368D01*
X189896257Y-79878615D01*
X189911777Y-79904509D01*
X189924684Y-79931799D01*
X189934854Y-79960223D01*
X189942189Y-79989506D01*
X189946619Y-80019368D01*
X189948100Y-80049520D01*
X189948100Y-82510480D01*
X189946619Y-82540632D01*
X189942189Y-82570494D01*
X189934854Y-82599777D01*
X189924684Y-82628201D01*
X189911777Y-82655491D01*
X189896257Y-82681385D01*
X189878273Y-82705632D01*
X189858000Y-82728000D01*
X189835632Y-82748273D01*
X189811385Y-82766257D01*
X189785491Y-82781777D01*
X189758201Y-82794684D01*
X189729777Y-82804854D01*
X189700494Y-82812189D01*
X189670632Y-82816619D01*
X189640480Y-82818100D01*
X184679520Y-82818100D01*
X184649368Y-82816619D01*
X184619506Y-82812189D01*
X184590223Y-82804854D01*
X184561799Y-82794684D01*
X184534509Y-82781777D01*
X184508615Y-82766257D01*
X184484368Y-82748273D01*
X184462000Y-82728000D01*
X184441727Y-82705632D01*
X184423743Y-82681385D01*
X184408223Y-82655491D01*
X184395316Y-82628201D01*
X184385146Y-82599777D01*
X184377811Y-82570494D01*
X184373381Y-82540632D01*
X184371900Y-82510480D01*
X184371900Y-80049520D01*
X184373381Y-80019368D01*
X184377811Y-79989506D01*
X184385146Y-79960223D01*
X184395316Y-79931799D01*
X184408223Y-79904509D01*
X184423743Y-79878615D01*
X184441727Y-79854368D01*
X184462000Y-79832000D01*
X184484368Y-79811727D01*
X184508615Y-79793743D01*
X184534509Y-79778223D01*
X184561799Y-79765316D01*
X184590223Y-79755146D01*
X184619506Y-79747811D01*
X184649368Y-79743381D01*
X184679520Y-79741900D01*
X189640480Y-79741900D01*
X189670632Y-79743381D01*
X189670632Y-79743381D01*
G37*
D15*
X187160000Y-81280000D03*
G04 #@! TD*
D14*
G04 #@! TO.C,RV7*
X104140000Y-76200000D03*
D15*
X104140000Y-84000000D03*
D16*
G36*
X120150632Y-79743381D02*
G01*
X120180494Y-79747811D01*
X120209777Y-79755146D01*
X120238201Y-79765316D01*
X120265491Y-79778223D01*
X120291385Y-79793743D01*
X120315632Y-79811727D01*
X120338000Y-79832000D01*
X120358273Y-79854368D01*
X120376257Y-79878615D01*
X120391777Y-79904509D01*
X120404684Y-79931799D01*
X120414854Y-79960223D01*
X120422189Y-79989506D01*
X120426619Y-80019368D01*
X120428100Y-80049520D01*
X120428100Y-82510480D01*
X120426619Y-82540632D01*
X120422189Y-82570494D01*
X120414854Y-82599777D01*
X120404684Y-82628201D01*
X120391777Y-82655491D01*
X120376257Y-82681385D01*
X120358273Y-82705632D01*
X120338000Y-82728000D01*
X120315632Y-82748273D01*
X120291385Y-82766257D01*
X120265491Y-82781777D01*
X120238201Y-82794684D01*
X120209777Y-82804854D01*
X120180494Y-82812189D01*
X120150632Y-82816619D01*
X120120480Y-82818100D01*
X115159520Y-82818100D01*
X115129368Y-82816619D01*
X115099506Y-82812189D01*
X115070223Y-82804854D01*
X115041799Y-82794684D01*
X115014509Y-82781777D01*
X114988615Y-82766257D01*
X114964368Y-82748273D01*
X114942000Y-82728000D01*
X114921727Y-82705632D01*
X114903743Y-82681385D01*
X114888223Y-82655491D01*
X114875316Y-82628201D01*
X114865146Y-82599777D01*
X114857811Y-82570494D01*
X114853381Y-82540632D01*
X114851900Y-82510480D01*
X114851900Y-80049520D01*
X114853381Y-80019368D01*
X114857811Y-79989506D01*
X114865146Y-79960223D01*
X114875316Y-79931799D01*
X114888223Y-79904509D01*
X114903743Y-79878615D01*
X114921727Y-79854368D01*
X114942000Y-79832000D01*
X114964368Y-79811727D01*
X114988615Y-79793743D01*
X115014509Y-79778223D01*
X115041799Y-79765316D01*
X115070223Y-79755146D01*
X115099506Y-79747811D01*
X115129368Y-79743381D01*
X115159520Y-79741900D01*
X120120480Y-79741900D01*
X120150632Y-79743381D01*
X120150632Y-79743381D01*
G37*
D15*
X117640000Y-81280000D03*
D16*
G36*
X120150632Y-74663381D02*
G01*
X120180494Y-74667811D01*
X120209777Y-74675146D01*
X120238201Y-74685316D01*
X120265491Y-74698223D01*
X120291385Y-74713743D01*
X120315632Y-74731727D01*
X120338000Y-74752000D01*
X120358273Y-74774368D01*
X120376257Y-74798615D01*
X120391777Y-74824509D01*
X120404684Y-74851799D01*
X120414854Y-74880223D01*
X120422189Y-74909506D01*
X120426619Y-74939368D01*
X120428100Y-74969520D01*
X120428100Y-77430480D01*
X120426619Y-77460632D01*
X120422189Y-77490494D01*
X120414854Y-77519777D01*
X120404684Y-77548201D01*
X120391777Y-77575491D01*
X120376257Y-77601385D01*
X120358273Y-77625632D01*
X120338000Y-77648000D01*
X120315632Y-77668273D01*
X120291385Y-77686257D01*
X120265491Y-77701777D01*
X120238201Y-77714684D01*
X120209777Y-77724854D01*
X120180494Y-77732189D01*
X120150632Y-77736619D01*
X120120480Y-77738100D01*
X115159520Y-77738100D01*
X115129368Y-77736619D01*
X115099506Y-77732189D01*
X115070223Y-77724854D01*
X115041799Y-77714684D01*
X115014509Y-77701777D01*
X114988615Y-77686257D01*
X114964368Y-77668273D01*
X114942000Y-77648000D01*
X114921727Y-77625632D01*
X114903743Y-77601385D01*
X114888223Y-77575491D01*
X114875316Y-77548201D01*
X114865146Y-77519777D01*
X114857811Y-77490494D01*
X114853381Y-77460632D01*
X114851900Y-77430480D01*
X114851900Y-74969520D01*
X114853381Y-74939368D01*
X114857811Y-74909506D01*
X114865146Y-74880223D01*
X114875316Y-74851799D01*
X114888223Y-74824509D01*
X114903743Y-74798615D01*
X114921727Y-74774368D01*
X114942000Y-74752000D01*
X114964368Y-74731727D01*
X114988615Y-74713743D01*
X115014509Y-74698223D01*
X115041799Y-74685316D01*
X115070223Y-74675146D01*
X115099506Y-74667811D01*
X115129368Y-74663381D01*
X115159520Y-74661900D01*
X120120480Y-74661900D01*
X120150632Y-74663381D01*
X120150632Y-74663381D01*
G37*
D15*
X117640000Y-76200000D03*
D16*
G36*
X120150632Y-69583381D02*
G01*
X120180494Y-69587811D01*
X120209777Y-69595146D01*
X120238201Y-69605316D01*
X120265491Y-69618223D01*
X120291385Y-69633743D01*
X120315632Y-69651727D01*
X120338000Y-69672000D01*
X120358273Y-69694368D01*
X120376257Y-69718615D01*
X120391777Y-69744509D01*
X120404684Y-69771799D01*
X120414854Y-69800223D01*
X120422189Y-69829506D01*
X120426619Y-69859368D01*
X120428100Y-69889520D01*
X120428100Y-72350480D01*
X120426619Y-72380632D01*
X120422189Y-72410494D01*
X120414854Y-72439777D01*
X120404684Y-72468201D01*
X120391777Y-72495491D01*
X120376257Y-72521385D01*
X120358273Y-72545632D01*
X120338000Y-72568000D01*
X120315632Y-72588273D01*
X120291385Y-72606257D01*
X120265491Y-72621777D01*
X120238201Y-72634684D01*
X120209777Y-72644854D01*
X120180494Y-72652189D01*
X120150632Y-72656619D01*
X120120480Y-72658100D01*
X115159520Y-72658100D01*
X115129368Y-72656619D01*
X115099506Y-72652189D01*
X115070223Y-72644854D01*
X115041799Y-72634684D01*
X115014509Y-72621777D01*
X114988615Y-72606257D01*
X114964368Y-72588273D01*
X114942000Y-72568000D01*
X114921727Y-72545632D01*
X114903743Y-72521385D01*
X114888223Y-72495491D01*
X114875316Y-72468201D01*
X114865146Y-72439777D01*
X114857811Y-72410494D01*
X114853381Y-72380632D01*
X114851900Y-72350480D01*
X114851900Y-69889520D01*
X114853381Y-69859368D01*
X114857811Y-69829506D01*
X114865146Y-69800223D01*
X114875316Y-69771799D01*
X114888223Y-69744509D01*
X114903743Y-69718615D01*
X114921727Y-69694368D01*
X114942000Y-69672000D01*
X114964368Y-69651727D01*
X114988615Y-69633743D01*
X115014509Y-69618223D01*
X115041799Y-69605316D01*
X115070223Y-69595146D01*
X115099506Y-69587811D01*
X115129368Y-69583381D01*
X115159520Y-69581900D01*
X120120480Y-69581900D01*
X120150632Y-69583381D01*
X120150632Y-69583381D01*
G37*
D15*
X117640000Y-71120000D03*
G04 #@! TD*
D14*
G04 #@! TO.C,RV5*
X104140000Y-48260000D03*
D15*
X104140000Y-56060000D03*
D16*
G36*
X120150632Y-51803381D02*
G01*
X120180494Y-51807811D01*
X120209777Y-51815146D01*
X120238201Y-51825316D01*
X120265491Y-51838223D01*
X120291385Y-51853743D01*
X120315632Y-51871727D01*
X120338000Y-51892000D01*
X120358273Y-51914368D01*
X120376257Y-51938615D01*
X120391777Y-51964509D01*
X120404684Y-51991799D01*
X120414854Y-52020223D01*
X120422189Y-52049506D01*
X120426619Y-52079368D01*
X120428100Y-52109520D01*
X120428100Y-54570480D01*
X120426619Y-54600632D01*
X120422189Y-54630494D01*
X120414854Y-54659777D01*
X120404684Y-54688201D01*
X120391777Y-54715491D01*
X120376257Y-54741385D01*
X120358273Y-54765632D01*
X120338000Y-54788000D01*
X120315632Y-54808273D01*
X120291385Y-54826257D01*
X120265491Y-54841777D01*
X120238201Y-54854684D01*
X120209777Y-54864854D01*
X120180494Y-54872189D01*
X120150632Y-54876619D01*
X120120480Y-54878100D01*
X115159520Y-54878100D01*
X115129368Y-54876619D01*
X115099506Y-54872189D01*
X115070223Y-54864854D01*
X115041799Y-54854684D01*
X115014509Y-54841777D01*
X114988615Y-54826257D01*
X114964368Y-54808273D01*
X114942000Y-54788000D01*
X114921727Y-54765632D01*
X114903743Y-54741385D01*
X114888223Y-54715491D01*
X114875316Y-54688201D01*
X114865146Y-54659777D01*
X114857811Y-54630494D01*
X114853381Y-54600632D01*
X114851900Y-54570480D01*
X114851900Y-52109520D01*
X114853381Y-52079368D01*
X114857811Y-52049506D01*
X114865146Y-52020223D01*
X114875316Y-51991799D01*
X114888223Y-51964509D01*
X114903743Y-51938615D01*
X114921727Y-51914368D01*
X114942000Y-51892000D01*
X114964368Y-51871727D01*
X114988615Y-51853743D01*
X115014509Y-51838223D01*
X115041799Y-51825316D01*
X115070223Y-51815146D01*
X115099506Y-51807811D01*
X115129368Y-51803381D01*
X115159520Y-51801900D01*
X120120480Y-51801900D01*
X120150632Y-51803381D01*
X120150632Y-51803381D01*
G37*
D15*
X117640000Y-53340000D03*
D16*
G36*
X120150632Y-46723381D02*
G01*
X120180494Y-46727811D01*
X120209777Y-46735146D01*
X120238201Y-46745316D01*
X120265491Y-46758223D01*
X120291385Y-46773743D01*
X120315632Y-46791727D01*
X120338000Y-46812000D01*
X120358273Y-46834368D01*
X120376257Y-46858615D01*
X120391777Y-46884509D01*
X120404684Y-46911799D01*
X120414854Y-46940223D01*
X120422189Y-46969506D01*
X120426619Y-46999368D01*
X120428100Y-47029520D01*
X120428100Y-49490480D01*
X120426619Y-49520632D01*
X120422189Y-49550494D01*
X120414854Y-49579777D01*
X120404684Y-49608201D01*
X120391777Y-49635491D01*
X120376257Y-49661385D01*
X120358273Y-49685632D01*
X120338000Y-49708000D01*
X120315632Y-49728273D01*
X120291385Y-49746257D01*
X120265491Y-49761777D01*
X120238201Y-49774684D01*
X120209777Y-49784854D01*
X120180494Y-49792189D01*
X120150632Y-49796619D01*
X120120480Y-49798100D01*
X115159520Y-49798100D01*
X115129368Y-49796619D01*
X115099506Y-49792189D01*
X115070223Y-49784854D01*
X115041799Y-49774684D01*
X115014509Y-49761777D01*
X114988615Y-49746257D01*
X114964368Y-49728273D01*
X114942000Y-49708000D01*
X114921727Y-49685632D01*
X114903743Y-49661385D01*
X114888223Y-49635491D01*
X114875316Y-49608201D01*
X114865146Y-49579777D01*
X114857811Y-49550494D01*
X114853381Y-49520632D01*
X114851900Y-49490480D01*
X114851900Y-47029520D01*
X114853381Y-46999368D01*
X114857811Y-46969506D01*
X114865146Y-46940223D01*
X114875316Y-46911799D01*
X114888223Y-46884509D01*
X114903743Y-46858615D01*
X114921727Y-46834368D01*
X114942000Y-46812000D01*
X114964368Y-46791727D01*
X114988615Y-46773743D01*
X115014509Y-46758223D01*
X115041799Y-46745316D01*
X115070223Y-46735146D01*
X115099506Y-46727811D01*
X115129368Y-46723381D01*
X115159520Y-46721900D01*
X120120480Y-46721900D01*
X120150632Y-46723381D01*
X120150632Y-46723381D01*
G37*
D15*
X117640000Y-48260000D03*
D16*
G36*
X120150632Y-41643381D02*
G01*
X120180494Y-41647811D01*
X120209777Y-41655146D01*
X120238201Y-41665316D01*
X120265491Y-41678223D01*
X120291385Y-41693743D01*
X120315632Y-41711727D01*
X120338000Y-41732000D01*
X120358273Y-41754368D01*
X120376257Y-41778615D01*
X120391777Y-41804509D01*
X120404684Y-41831799D01*
X120414854Y-41860223D01*
X120422189Y-41889506D01*
X120426619Y-41919368D01*
X120428100Y-41949520D01*
X120428100Y-44410480D01*
X120426619Y-44440632D01*
X120422189Y-44470494D01*
X120414854Y-44499777D01*
X120404684Y-44528201D01*
X120391777Y-44555491D01*
X120376257Y-44581385D01*
X120358273Y-44605632D01*
X120338000Y-44628000D01*
X120315632Y-44648273D01*
X120291385Y-44666257D01*
X120265491Y-44681777D01*
X120238201Y-44694684D01*
X120209777Y-44704854D01*
X120180494Y-44712189D01*
X120150632Y-44716619D01*
X120120480Y-44718100D01*
X115159520Y-44718100D01*
X115129368Y-44716619D01*
X115099506Y-44712189D01*
X115070223Y-44704854D01*
X115041799Y-44694684D01*
X115014509Y-44681777D01*
X114988615Y-44666257D01*
X114964368Y-44648273D01*
X114942000Y-44628000D01*
X114921727Y-44605632D01*
X114903743Y-44581385D01*
X114888223Y-44555491D01*
X114875316Y-44528201D01*
X114865146Y-44499777D01*
X114857811Y-44470494D01*
X114853381Y-44440632D01*
X114851900Y-44410480D01*
X114851900Y-41949520D01*
X114853381Y-41919368D01*
X114857811Y-41889506D01*
X114865146Y-41860223D01*
X114875316Y-41831799D01*
X114888223Y-41804509D01*
X114903743Y-41778615D01*
X114921727Y-41754368D01*
X114942000Y-41732000D01*
X114964368Y-41711727D01*
X114988615Y-41693743D01*
X115014509Y-41678223D01*
X115041799Y-41665316D01*
X115070223Y-41655146D01*
X115099506Y-41647811D01*
X115129368Y-41643381D01*
X115159520Y-41641900D01*
X120120480Y-41641900D01*
X120150632Y-41643381D01*
X120150632Y-41643381D01*
G37*
D15*
X117640000Y-43180000D03*
G04 #@! TD*
D14*
G04 #@! TO.C,RV3*
X104140000Y-20320000D03*
D15*
X104140000Y-28120000D03*
D16*
G36*
X120150632Y-23863381D02*
G01*
X120180494Y-23867811D01*
X120209777Y-23875146D01*
X120238201Y-23885316D01*
X120265491Y-23898223D01*
X120291385Y-23913743D01*
X120315632Y-23931727D01*
X120338000Y-23952000D01*
X120358273Y-23974368D01*
X120376257Y-23998615D01*
X120391777Y-24024509D01*
X120404684Y-24051799D01*
X120414854Y-24080223D01*
X120422189Y-24109506D01*
X120426619Y-24139368D01*
X120428100Y-24169520D01*
X120428100Y-26630480D01*
X120426619Y-26660632D01*
X120422189Y-26690494D01*
X120414854Y-26719777D01*
X120404684Y-26748201D01*
X120391777Y-26775491D01*
X120376257Y-26801385D01*
X120358273Y-26825632D01*
X120338000Y-26848000D01*
X120315632Y-26868273D01*
X120291385Y-26886257D01*
X120265491Y-26901777D01*
X120238201Y-26914684D01*
X120209777Y-26924854D01*
X120180494Y-26932189D01*
X120150632Y-26936619D01*
X120120480Y-26938100D01*
X115159520Y-26938100D01*
X115129368Y-26936619D01*
X115099506Y-26932189D01*
X115070223Y-26924854D01*
X115041799Y-26914684D01*
X115014509Y-26901777D01*
X114988615Y-26886257D01*
X114964368Y-26868273D01*
X114942000Y-26848000D01*
X114921727Y-26825632D01*
X114903743Y-26801385D01*
X114888223Y-26775491D01*
X114875316Y-26748201D01*
X114865146Y-26719777D01*
X114857811Y-26690494D01*
X114853381Y-26660632D01*
X114851900Y-26630480D01*
X114851900Y-24169520D01*
X114853381Y-24139368D01*
X114857811Y-24109506D01*
X114865146Y-24080223D01*
X114875316Y-24051799D01*
X114888223Y-24024509D01*
X114903743Y-23998615D01*
X114921727Y-23974368D01*
X114942000Y-23952000D01*
X114964368Y-23931727D01*
X114988615Y-23913743D01*
X115014509Y-23898223D01*
X115041799Y-23885316D01*
X115070223Y-23875146D01*
X115099506Y-23867811D01*
X115129368Y-23863381D01*
X115159520Y-23861900D01*
X120120480Y-23861900D01*
X120150632Y-23863381D01*
X120150632Y-23863381D01*
G37*
D15*
X117640000Y-25400000D03*
D16*
G36*
X120150632Y-18783381D02*
G01*
X120180494Y-18787811D01*
X120209777Y-18795146D01*
X120238201Y-18805316D01*
X120265491Y-18818223D01*
X120291385Y-18833743D01*
X120315632Y-18851727D01*
X120338000Y-18872000D01*
X120358273Y-18894368D01*
X120376257Y-18918615D01*
X120391777Y-18944509D01*
X120404684Y-18971799D01*
X120414854Y-19000223D01*
X120422189Y-19029506D01*
X120426619Y-19059368D01*
X120428100Y-19089520D01*
X120428100Y-21550480D01*
X120426619Y-21580632D01*
X120422189Y-21610494D01*
X120414854Y-21639777D01*
X120404684Y-21668201D01*
X120391777Y-21695491D01*
X120376257Y-21721385D01*
X120358273Y-21745632D01*
X120338000Y-21768000D01*
X120315632Y-21788273D01*
X120291385Y-21806257D01*
X120265491Y-21821777D01*
X120238201Y-21834684D01*
X120209777Y-21844854D01*
X120180494Y-21852189D01*
X120150632Y-21856619D01*
X120120480Y-21858100D01*
X115159520Y-21858100D01*
X115129368Y-21856619D01*
X115099506Y-21852189D01*
X115070223Y-21844854D01*
X115041799Y-21834684D01*
X115014509Y-21821777D01*
X114988615Y-21806257D01*
X114964368Y-21788273D01*
X114942000Y-21768000D01*
X114921727Y-21745632D01*
X114903743Y-21721385D01*
X114888223Y-21695491D01*
X114875316Y-21668201D01*
X114865146Y-21639777D01*
X114857811Y-21610494D01*
X114853381Y-21580632D01*
X114851900Y-21550480D01*
X114851900Y-19089520D01*
X114853381Y-19059368D01*
X114857811Y-19029506D01*
X114865146Y-19000223D01*
X114875316Y-18971799D01*
X114888223Y-18944509D01*
X114903743Y-18918615D01*
X114921727Y-18894368D01*
X114942000Y-18872000D01*
X114964368Y-18851727D01*
X114988615Y-18833743D01*
X115014509Y-18818223D01*
X115041799Y-18805316D01*
X115070223Y-18795146D01*
X115099506Y-18787811D01*
X115129368Y-18783381D01*
X115159520Y-18781900D01*
X120120480Y-18781900D01*
X120150632Y-18783381D01*
X120150632Y-18783381D01*
G37*
D15*
X117640000Y-20320000D03*
D16*
G36*
X120150632Y-13703381D02*
G01*
X120180494Y-13707811D01*
X120209777Y-13715146D01*
X120238201Y-13725316D01*
X120265491Y-13738223D01*
X120291385Y-13753743D01*
X120315632Y-13771727D01*
X120338000Y-13792000D01*
X120358273Y-13814368D01*
X120376257Y-13838615D01*
X120391777Y-13864509D01*
X120404684Y-13891799D01*
X120414854Y-13920223D01*
X120422189Y-13949506D01*
X120426619Y-13979368D01*
X120428100Y-14009520D01*
X120428100Y-16470480D01*
X120426619Y-16500632D01*
X120422189Y-16530494D01*
X120414854Y-16559777D01*
X120404684Y-16588201D01*
X120391777Y-16615491D01*
X120376257Y-16641385D01*
X120358273Y-16665632D01*
X120338000Y-16688000D01*
X120315632Y-16708273D01*
X120291385Y-16726257D01*
X120265491Y-16741777D01*
X120238201Y-16754684D01*
X120209777Y-16764854D01*
X120180494Y-16772189D01*
X120150632Y-16776619D01*
X120120480Y-16778100D01*
X115159520Y-16778100D01*
X115129368Y-16776619D01*
X115099506Y-16772189D01*
X115070223Y-16764854D01*
X115041799Y-16754684D01*
X115014509Y-16741777D01*
X114988615Y-16726257D01*
X114964368Y-16708273D01*
X114942000Y-16688000D01*
X114921727Y-16665632D01*
X114903743Y-16641385D01*
X114888223Y-16615491D01*
X114875316Y-16588201D01*
X114865146Y-16559777D01*
X114857811Y-16530494D01*
X114853381Y-16500632D01*
X114851900Y-16470480D01*
X114851900Y-14009520D01*
X114853381Y-13979368D01*
X114857811Y-13949506D01*
X114865146Y-13920223D01*
X114875316Y-13891799D01*
X114888223Y-13864509D01*
X114903743Y-13838615D01*
X114921727Y-13814368D01*
X114942000Y-13792000D01*
X114964368Y-13771727D01*
X114988615Y-13753743D01*
X115014509Y-13738223D01*
X115041799Y-13725316D01*
X115070223Y-13715146D01*
X115099506Y-13707811D01*
X115129368Y-13703381D01*
X115159520Y-13701900D01*
X120120480Y-13701900D01*
X120150632Y-13703381D01*
X120150632Y-13703381D01*
G37*
D15*
X117640000Y-15240000D03*
G04 #@! TD*
D14*
G04 #@! TO.C,RV2*
X200660000Y7620000D03*
D15*
X200660000Y15420000D03*
D16*
G36*
X189670632Y14236619D02*
G01*
X189700494Y14232189D01*
X189729777Y14224854D01*
X189758201Y14214684D01*
X189785491Y14201777D01*
X189811385Y14186257D01*
X189835632Y14168273D01*
X189858000Y14148000D01*
X189878273Y14125632D01*
X189896257Y14101385D01*
X189911777Y14075491D01*
X189924684Y14048201D01*
X189934854Y14019777D01*
X189942189Y13990494D01*
X189946619Y13960632D01*
X189948100Y13930480D01*
X189948100Y11469520D01*
X189946619Y11439368D01*
X189942189Y11409506D01*
X189934854Y11380223D01*
X189924684Y11351799D01*
X189911777Y11324509D01*
X189896257Y11298615D01*
X189878273Y11274368D01*
X189858000Y11252000D01*
X189835632Y11231727D01*
X189811385Y11213743D01*
X189785491Y11198223D01*
X189758201Y11185316D01*
X189729777Y11175146D01*
X189700494Y11167811D01*
X189670632Y11163381D01*
X189640480Y11161900D01*
X184679520Y11161900D01*
X184649368Y11163381D01*
X184619506Y11167811D01*
X184590223Y11175146D01*
X184561799Y11185316D01*
X184534509Y11198223D01*
X184508615Y11213743D01*
X184484368Y11231727D01*
X184462000Y11252000D01*
X184441727Y11274368D01*
X184423743Y11298615D01*
X184408223Y11324509D01*
X184395316Y11351799D01*
X184385146Y11380223D01*
X184377811Y11409506D01*
X184373381Y11439368D01*
X184371900Y11469520D01*
X184371900Y13930480D01*
X184373381Y13960632D01*
X184377811Y13990494D01*
X184385146Y14019777D01*
X184395316Y14048201D01*
X184408223Y14075491D01*
X184423743Y14101385D01*
X184441727Y14125632D01*
X184462000Y14148000D01*
X184484368Y14168273D01*
X184508615Y14186257D01*
X184534509Y14201777D01*
X184561799Y14214684D01*
X184590223Y14224854D01*
X184619506Y14232189D01*
X184649368Y14236619D01*
X184679520Y14238100D01*
X189640480Y14238100D01*
X189670632Y14236619D01*
X189670632Y14236619D01*
G37*
D15*
X187160000Y12700000D03*
D16*
G36*
X189670632Y9156619D02*
G01*
X189700494Y9152189D01*
X189729777Y9144854D01*
X189758201Y9134684D01*
X189785491Y9121777D01*
X189811385Y9106257D01*
X189835632Y9088273D01*
X189858000Y9068000D01*
X189878273Y9045632D01*
X189896257Y9021385D01*
X189911777Y8995491D01*
X189924684Y8968201D01*
X189934854Y8939777D01*
X189942189Y8910494D01*
X189946619Y8880632D01*
X189948100Y8850480D01*
X189948100Y6389520D01*
X189946619Y6359368D01*
X189942189Y6329506D01*
X189934854Y6300223D01*
X189924684Y6271799D01*
X189911777Y6244509D01*
X189896257Y6218615D01*
X189878273Y6194368D01*
X189858000Y6172000D01*
X189835632Y6151727D01*
X189811385Y6133743D01*
X189785491Y6118223D01*
X189758201Y6105316D01*
X189729777Y6095146D01*
X189700494Y6087811D01*
X189670632Y6083381D01*
X189640480Y6081900D01*
X184679520Y6081900D01*
X184649368Y6083381D01*
X184619506Y6087811D01*
X184590223Y6095146D01*
X184561799Y6105316D01*
X184534509Y6118223D01*
X184508615Y6133743D01*
X184484368Y6151727D01*
X184462000Y6172000D01*
X184441727Y6194368D01*
X184423743Y6218615D01*
X184408223Y6244509D01*
X184395316Y6271799D01*
X184385146Y6300223D01*
X184377811Y6329506D01*
X184373381Y6359368D01*
X184371900Y6389520D01*
X184371900Y8850480D01*
X184373381Y8880632D01*
X184377811Y8910494D01*
X184385146Y8939777D01*
X184395316Y8968201D01*
X184408223Y8995491D01*
X184423743Y9021385D01*
X184441727Y9045632D01*
X184462000Y9068000D01*
X184484368Y9088273D01*
X184508615Y9106257D01*
X184534509Y9121777D01*
X184561799Y9134684D01*
X184590223Y9144854D01*
X184619506Y9152189D01*
X184649368Y9156619D01*
X184679520Y9158100D01*
X189640480Y9158100D01*
X189670632Y9156619D01*
X189670632Y9156619D01*
G37*
D15*
X187160000Y7620000D03*
D16*
G36*
X189670632Y4076619D02*
G01*
X189700494Y4072189D01*
X189729777Y4064854D01*
X189758201Y4054684D01*
X189785491Y4041777D01*
X189811385Y4026257D01*
X189835632Y4008273D01*
X189858000Y3988000D01*
X189878273Y3965632D01*
X189896257Y3941385D01*
X189911777Y3915491D01*
X189924684Y3888201D01*
X189934854Y3859777D01*
X189942189Y3830494D01*
X189946619Y3800632D01*
X189948100Y3770480D01*
X189948100Y1309520D01*
X189946619Y1279368D01*
X189942189Y1249506D01*
X189934854Y1220223D01*
X189924684Y1191799D01*
X189911777Y1164509D01*
X189896257Y1138615D01*
X189878273Y1114368D01*
X189858000Y1092000D01*
X189835632Y1071727D01*
X189811385Y1053743D01*
X189785491Y1038223D01*
X189758201Y1025316D01*
X189729777Y1015146D01*
X189700494Y1007811D01*
X189670632Y1003381D01*
X189640480Y1001900D01*
X184679520Y1001900D01*
X184649368Y1003381D01*
X184619506Y1007811D01*
X184590223Y1015146D01*
X184561799Y1025316D01*
X184534509Y1038223D01*
X184508615Y1053743D01*
X184484368Y1071727D01*
X184462000Y1092000D01*
X184441727Y1114368D01*
X184423743Y1138615D01*
X184408223Y1164509D01*
X184395316Y1191799D01*
X184385146Y1220223D01*
X184377811Y1249506D01*
X184373381Y1279368D01*
X184371900Y1309520D01*
X184371900Y3770480D01*
X184373381Y3800632D01*
X184377811Y3830494D01*
X184385146Y3859777D01*
X184395316Y3888201D01*
X184408223Y3915491D01*
X184423743Y3941385D01*
X184441727Y3965632D01*
X184462000Y3988000D01*
X184484368Y4008273D01*
X184508615Y4026257D01*
X184534509Y4041777D01*
X184561799Y4054684D01*
X184590223Y4064854D01*
X184619506Y4072189D01*
X184649368Y4076619D01*
X184679520Y4078100D01*
X189640480Y4078100D01*
X189670632Y4076619D01*
X189670632Y4076619D01*
G37*
D15*
X187160000Y2540000D03*
G04 #@! TD*
D14*
G04 #@! TO.C,RV1*
X104140000Y7620000D03*
D15*
X104140000Y-180000D03*
D16*
G36*
X120150632Y4076619D02*
G01*
X120180494Y4072189D01*
X120209777Y4064854D01*
X120238201Y4054684D01*
X120265491Y4041777D01*
X120291385Y4026257D01*
X120315632Y4008273D01*
X120338000Y3988000D01*
X120358273Y3965632D01*
X120376257Y3941385D01*
X120391777Y3915491D01*
X120404684Y3888201D01*
X120414854Y3859777D01*
X120422189Y3830494D01*
X120426619Y3800632D01*
X120428100Y3770480D01*
X120428100Y1309520D01*
X120426619Y1279368D01*
X120422189Y1249506D01*
X120414854Y1220223D01*
X120404684Y1191799D01*
X120391777Y1164509D01*
X120376257Y1138615D01*
X120358273Y1114368D01*
X120338000Y1092000D01*
X120315632Y1071727D01*
X120291385Y1053743D01*
X120265491Y1038223D01*
X120238201Y1025316D01*
X120209777Y1015146D01*
X120180494Y1007811D01*
X120150632Y1003381D01*
X120120480Y1001900D01*
X115159520Y1001900D01*
X115129368Y1003381D01*
X115099506Y1007811D01*
X115070223Y1015146D01*
X115041799Y1025316D01*
X115014509Y1038223D01*
X114988615Y1053743D01*
X114964368Y1071727D01*
X114942000Y1092000D01*
X114921727Y1114368D01*
X114903743Y1138615D01*
X114888223Y1164509D01*
X114875316Y1191799D01*
X114865146Y1220223D01*
X114857811Y1249506D01*
X114853381Y1279368D01*
X114851900Y1309520D01*
X114851900Y3770480D01*
X114853381Y3800632D01*
X114857811Y3830494D01*
X114865146Y3859777D01*
X114875316Y3888201D01*
X114888223Y3915491D01*
X114903743Y3941385D01*
X114921727Y3965632D01*
X114942000Y3988000D01*
X114964368Y4008273D01*
X114988615Y4026257D01*
X115014509Y4041777D01*
X115041799Y4054684D01*
X115070223Y4064854D01*
X115099506Y4072189D01*
X115129368Y4076619D01*
X115159520Y4078100D01*
X120120480Y4078100D01*
X120150632Y4076619D01*
X120150632Y4076619D01*
G37*
D15*
X117640000Y2540000D03*
D16*
G36*
X120150632Y9156619D02*
G01*
X120180494Y9152189D01*
X120209777Y9144854D01*
X120238201Y9134684D01*
X120265491Y9121777D01*
X120291385Y9106257D01*
X120315632Y9088273D01*
X120338000Y9068000D01*
X120358273Y9045632D01*
X120376257Y9021385D01*
X120391777Y8995491D01*
X120404684Y8968201D01*
X120414854Y8939777D01*
X120422189Y8910494D01*
X120426619Y8880632D01*
X120428100Y8850480D01*
X120428100Y6389520D01*
X120426619Y6359368D01*
X120422189Y6329506D01*
X120414854Y6300223D01*
X120404684Y6271799D01*
X120391777Y6244509D01*
X120376257Y6218615D01*
X120358273Y6194368D01*
X120338000Y6172000D01*
X120315632Y6151727D01*
X120291385Y6133743D01*
X120265491Y6118223D01*
X120238201Y6105316D01*
X120209777Y6095146D01*
X120180494Y6087811D01*
X120150632Y6083381D01*
X120120480Y6081900D01*
X115159520Y6081900D01*
X115129368Y6083381D01*
X115099506Y6087811D01*
X115070223Y6095146D01*
X115041799Y6105316D01*
X115014509Y6118223D01*
X114988615Y6133743D01*
X114964368Y6151727D01*
X114942000Y6172000D01*
X114921727Y6194368D01*
X114903743Y6218615D01*
X114888223Y6244509D01*
X114875316Y6271799D01*
X114865146Y6300223D01*
X114857811Y6329506D01*
X114853381Y6359368D01*
X114851900Y6389520D01*
X114851900Y8850480D01*
X114853381Y8880632D01*
X114857811Y8910494D01*
X114865146Y8939777D01*
X114875316Y8968201D01*
X114888223Y8995491D01*
X114903743Y9021385D01*
X114921727Y9045632D01*
X114942000Y9068000D01*
X114964368Y9088273D01*
X114988615Y9106257D01*
X115014509Y9121777D01*
X115041799Y9134684D01*
X115070223Y9144854D01*
X115099506Y9152189D01*
X115129368Y9156619D01*
X115159520Y9158100D01*
X120120480Y9158100D01*
X120150632Y9156619D01*
X120150632Y9156619D01*
G37*
D15*
X117640000Y7620000D03*
D16*
G36*
X120150632Y14236619D02*
G01*
X120180494Y14232189D01*
X120209777Y14224854D01*
X120238201Y14214684D01*
X120265491Y14201777D01*
X120291385Y14186257D01*
X120315632Y14168273D01*
X120338000Y14148000D01*
X120358273Y14125632D01*
X120376257Y14101385D01*
X120391777Y14075491D01*
X120404684Y14048201D01*
X120414854Y14019777D01*
X120422189Y13990494D01*
X120426619Y13960632D01*
X120428100Y13930480D01*
X120428100Y11469520D01*
X120426619Y11439368D01*
X120422189Y11409506D01*
X120414854Y11380223D01*
X120404684Y11351799D01*
X120391777Y11324509D01*
X120376257Y11298615D01*
X120358273Y11274368D01*
X120338000Y11252000D01*
X120315632Y11231727D01*
X120291385Y11213743D01*
X120265491Y11198223D01*
X120238201Y11185316D01*
X120209777Y11175146D01*
X120180494Y11167811D01*
X120150632Y11163381D01*
X120120480Y11161900D01*
X115159520Y11161900D01*
X115129368Y11163381D01*
X115099506Y11167811D01*
X115070223Y11175146D01*
X115041799Y11185316D01*
X115014509Y11198223D01*
X114988615Y11213743D01*
X114964368Y11231727D01*
X114942000Y11252000D01*
X114921727Y11274368D01*
X114903743Y11298615D01*
X114888223Y11324509D01*
X114875316Y11351799D01*
X114865146Y11380223D01*
X114857811Y11409506D01*
X114853381Y11439368D01*
X114851900Y11469520D01*
X114851900Y13930480D01*
X114853381Y13960632D01*
X114857811Y13990494D01*
X114865146Y14019777D01*
X114875316Y14048201D01*
X114888223Y14075491D01*
X114903743Y14101385D01*
X114921727Y14125632D01*
X114942000Y14148000D01*
X114964368Y14168273D01*
X114988615Y14186257D01*
X115014509Y14201777D01*
X115041799Y14214684D01*
X115070223Y14224854D01*
X115099506Y14232189D01*
X115129368Y14236619D01*
X115159520Y14238100D01*
X120120480Y14238100D01*
X120150632Y14236619D01*
X120150632Y14236619D01*
G37*
D15*
X117640000Y12700000D03*
G04 #@! TD*
D21*
G04 #@! TO.C,R35*
X173990000Y-99060000D03*
D22*
X173990000Y-109220000D03*
G04 #@! TD*
D21*
G04 #@! TO.C,R34*
X130810000Y-109220000D03*
D22*
X130810000Y-99060000D03*
G04 #@! TD*
D21*
G04 #@! TO.C,R33*
X173990000Y-71120000D03*
D22*
X173990000Y-81280000D03*
G04 #@! TD*
D21*
G04 #@! TO.C,R32*
X130810000Y-81280000D03*
D22*
X130810000Y-71120000D03*
G04 #@! TD*
D21*
G04 #@! TO.C,R31*
X173990000Y-43180000D03*
D22*
X173990000Y-53340000D03*
G04 #@! TD*
D21*
G04 #@! TO.C,R30*
X181610000Y-109220000D03*
D22*
X181610000Y-99060000D03*
G04 #@! TD*
D21*
G04 #@! TO.C,R29*
X123190000Y-99060000D03*
D22*
X123190000Y-109220000D03*
G04 #@! TD*
D21*
G04 #@! TO.C,R28*
X181610000Y-81280000D03*
D22*
X181610000Y-71120000D03*
G04 #@! TD*
D21*
G04 #@! TO.C,R27*
X123190000Y-71120000D03*
D22*
X123190000Y-81280000D03*
G04 #@! TD*
D21*
G04 #@! TO.C,R26*
X181610000Y-53340000D03*
D22*
X181610000Y-43180000D03*
G04 #@! TD*
D21*
G04 #@! TO.C,R25*
X177800000Y-109220000D03*
D22*
X177800000Y-99060000D03*
G04 #@! TD*
D21*
G04 #@! TO.C,R24*
X127000000Y-99060000D03*
D22*
X127000000Y-109220000D03*
G04 #@! TD*
D21*
G04 #@! TO.C,R23*
X177800000Y-81280000D03*
D22*
X177800000Y-71120000D03*
G04 #@! TD*
D21*
G04 #@! TO.C,R22*
X127000000Y-71120000D03*
D22*
X127000000Y-81280000D03*
G04 #@! TD*
D21*
G04 #@! TO.C,R21*
X177800000Y-53340000D03*
D22*
X177800000Y-43180000D03*
G04 #@! TD*
D21*
G04 #@! TO.C,R20*
X177800000Y-115570000D03*
D22*
X167640000Y-115570000D03*
G04 #@! TD*
D21*
G04 #@! TO.C,R19*
X127000000Y-43180000D03*
D22*
X127000000Y-53340000D03*
G04 #@! TD*
D21*
G04 #@! TO.C,R18*
X177800000Y-25400000D03*
D22*
X177800000Y-15240000D03*
G04 #@! TD*
D21*
G04 #@! TO.C,R17*
X127000000Y-15240000D03*
D22*
X127000000Y-25400000D03*
G04 #@! TD*
D21*
G04 #@! TO.C,R16*
X177800000Y2540000D03*
D22*
X177800000Y12700000D03*
G04 #@! TD*
D21*
G04 #@! TO.C,R15*
X127000000Y12700000D03*
D22*
X127000000Y2540000D03*
G04 #@! TD*
D21*
G04 #@! TO.C,R14*
X123190000Y-43180000D03*
D22*
X123190000Y-53340000D03*
G04 #@! TD*
D21*
G04 #@! TO.C,R13*
X181610000Y-25400000D03*
D22*
X181610000Y-15240000D03*
G04 #@! TD*
D21*
G04 #@! TO.C,R12*
X123190000Y-15240000D03*
D22*
X123190000Y-25400000D03*
G04 #@! TD*
D21*
G04 #@! TO.C,R11*
X181610000Y2540000D03*
D22*
X181610000Y12700000D03*
G04 #@! TD*
D21*
G04 #@! TO.C,R10*
X123190000Y12700000D03*
D22*
X123190000Y2540000D03*
G04 #@! TD*
D21*
G04 #@! TO.C,R9*
X130810000Y-53340000D03*
D22*
X130810000Y-43180000D03*
G04 #@! TD*
D21*
G04 #@! TO.C,R8*
X173990000Y-15240000D03*
D22*
X173990000Y-25400000D03*
G04 #@! TD*
D21*
G04 #@! TO.C,R7*
X130810000Y-25400000D03*
D22*
X130810000Y-15240000D03*
G04 #@! TD*
D21*
G04 #@! TO.C,R6*
X173990000Y12700000D03*
D22*
X173990000Y2540000D03*
G04 #@! TD*
D21*
G04 #@! TO.C,R5*
X130810000Y2540000D03*
D22*
X130810000Y12700000D03*
G04 #@! TD*
D21*
G04 #@! TO.C,R4*
X137160000Y48260000D03*
D22*
X127000000Y48260000D03*
G04 #@! TD*
D21*
G04 #@! TO.C,R3*
X137160000Y33020000D03*
D22*
X127000000Y33020000D03*
G04 #@! TD*
D21*
G04 #@! TO.C,R2*
X177800000Y48260000D03*
D22*
X167640000Y48260000D03*
G04 #@! TD*
D21*
G04 #@! TO.C,R1*
X167640000Y33020000D03*
D22*
X177800000Y33020000D03*
G04 #@! TD*
D23*
G04 #@! TO.C,J4*
X138430000Y-125730000D03*
X140970000Y-125730000D03*
X143510000Y-125730000D03*
X146050000Y-125730000D03*
X148590000Y-125730000D03*
X151130000Y-125730000D03*
X153670000Y-125730000D03*
X156210000Y-125730000D03*
X158750000Y-125730000D03*
X161290000Y-125730000D03*
D24*
X163830000Y-125730000D03*
G04 #@! TD*
D25*
G04 #@! TO.C,J3*
X131880000Y-125730000D03*
X129380000Y-125730000D03*
X126880000Y-125730000D03*
X124380000Y-125730000D03*
X121880000Y-125730000D03*
X119380000Y-125730000D03*
X116880000Y-125730000D03*
X114380000Y-125730000D03*
X111880000Y-125730000D03*
X109380000Y-125730000D03*
D16*
G36*
X107532497Y-124718158D02*
G01*
X107557853Y-124721919D01*
X107582718Y-124728147D01*
X107606853Y-124736783D01*
X107630026Y-124747743D01*
X107652012Y-124760921D01*
X107672601Y-124776191D01*
X107691595Y-124793405D01*
X107708809Y-124812399D01*
X107724079Y-124832988D01*
X107737257Y-124854974D01*
X107748217Y-124878147D01*
X107756853Y-124902282D01*
X107763081Y-124927147D01*
X107766842Y-124952503D01*
X107768100Y-124978106D01*
X107768100Y-126481894D01*
X107766842Y-126507497D01*
X107763081Y-126532853D01*
X107756853Y-126557718D01*
X107748217Y-126581853D01*
X107737257Y-126605026D01*
X107724079Y-126627012D01*
X107708809Y-126647601D01*
X107691595Y-126666595D01*
X107672601Y-126683809D01*
X107652012Y-126699079D01*
X107630026Y-126712257D01*
X107606853Y-126723217D01*
X107582718Y-126731853D01*
X107557853Y-126738081D01*
X107532497Y-126741842D01*
X107506894Y-126743100D01*
X106253106Y-126743100D01*
X106227503Y-126741842D01*
X106202147Y-126738081D01*
X106177282Y-126731853D01*
X106153147Y-126723217D01*
X106129974Y-126712257D01*
X106107988Y-126699079D01*
X106087399Y-126683809D01*
X106068405Y-126666595D01*
X106051191Y-126647601D01*
X106035921Y-126627012D01*
X106022743Y-126605026D01*
X106011783Y-126581853D01*
X106003147Y-126557718D01*
X105996919Y-126532853D01*
X105993158Y-126507497D01*
X105991900Y-126481894D01*
X105991900Y-124978106D01*
X105993158Y-124952503D01*
X105996919Y-124927147D01*
X106003147Y-124902282D01*
X106011783Y-124878147D01*
X106022743Y-124854974D01*
X106035921Y-124832988D01*
X106051191Y-124812399D01*
X106068405Y-124793405D01*
X106087399Y-124776191D01*
X106107988Y-124760921D01*
X106129974Y-124747743D01*
X106153147Y-124736783D01*
X106177282Y-124728147D01*
X106202147Y-124721919D01*
X106227503Y-124718158D01*
X106253106Y-124716900D01*
X107506894Y-124716900D01*
X107532497Y-124718158D01*
X107532497Y-124718158D01*
G37*
D26*
X106880000Y-125730000D03*
G04 #@! TD*
D27*
G04 #@! TO.C,D21*
X121920000Y-114935000D03*
D20*
X132080000Y-114935000D03*
G04 #@! TD*
D27*
G04 #@! TO.C,D20*
X121920000Y-90170000D03*
D20*
X132080000Y-90170000D03*
G04 #@! TD*
D27*
G04 #@! TO.C,D19*
X182880000Y-90170000D03*
D20*
X172720000Y-90170000D03*
G04 #@! TD*
D27*
G04 #@! TO.C,D18*
X121920000Y-62230000D03*
D20*
X132080000Y-62230000D03*
G04 #@! TD*
D27*
G04 #@! TO.C,D17*
X182880000Y-62230000D03*
D20*
X172720000Y-62230000D03*
G04 #@! TD*
D27*
G04 #@! TO.C,D16*
X147320000Y-104140000D03*
D20*
X157480000Y-104140000D03*
G04 #@! TD*
D27*
G04 #@! TO.C,D15*
X147320000Y-88900000D03*
D20*
X157480000Y-88900000D03*
G04 #@! TD*
D27*
G04 #@! TO.C,D14*
X147320000Y-73660000D03*
D20*
X157480000Y-73660000D03*
G04 #@! TD*
D27*
G04 #@! TO.C,D13*
X147320000Y-58420000D03*
D20*
X157480000Y-58420000D03*
G04 #@! TD*
D27*
G04 #@! TO.C,D12*
X147320000Y-43180000D03*
D20*
X157480000Y-43180000D03*
G04 #@! TD*
D28*
G04 #@! TO.C,D11*
X184785000Y-115570000D03*
D29*
X187325000Y-115570000D03*
G04 #@! TD*
D27*
G04 #@! TO.C,D10*
X147320000Y-27940000D03*
D20*
X157480000Y-27940000D03*
G04 #@! TD*
D27*
G04 #@! TO.C,D9*
X147320000Y-12700000D03*
D20*
X157480000Y-12700000D03*
G04 #@! TD*
D27*
G04 #@! TO.C,D8*
X147320000Y2540000D03*
D20*
X157480000Y2540000D03*
G04 #@! TD*
D27*
G04 #@! TO.C,D7*
X147320000Y17145000D03*
D20*
X157480000Y17145000D03*
G04 #@! TD*
D27*
G04 #@! TO.C,D6*
X121920000Y-34290000D03*
D20*
X132080000Y-34290000D03*
G04 #@! TD*
D27*
G04 #@! TO.C,D5*
X182880000Y-34290000D03*
D20*
X172720000Y-34290000D03*
G04 #@! TD*
D27*
G04 #@! TO.C,D4*
X121920000Y-6350000D03*
D20*
X132080000Y-6350000D03*
G04 #@! TD*
D27*
G04 #@! TO.C,D3*
X182880000Y-6350000D03*
D20*
X172720000Y-6350000D03*
G04 #@! TD*
D27*
G04 #@! TO.C,D2*
X182880000Y19050000D03*
D20*
X172720000Y19050000D03*
G04 #@! TD*
D27*
G04 #@! TO.C,D1*
X152400000Y22860000D03*
D20*
X152400000Y33020000D03*
G04 #@! TD*
D22*
G04 #@! TO.C,C21*
X152400000Y-118840000D03*
D30*
X152400000Y-116840000D03*
G04 #@! TD*
D22*
G04 #@! TO.C,C20*
X161290000Y-116300000D03*
D30*
X161290000Y-114300000D03*
G04 #@! TD*
D22*
G04 #@! TO.C,C19*
X161290000Y-101060000D03*
D30*
X161290000Y-99060000D03*
G04 #@! TD*
D22*
G04 #@! TO.C,C18*
X161290000Y-85820000D03*
D30*
X161290000Y-83820000D03*
G04 #@! TD*
D22*
G04 #@! TO.C,C17*
X161290000Y-70580000D03*
D30*
X161290000Y-68580000D03*
G04 #@! TD*
D31*
G04 #@! TO.C,C16*
X143510000Y-113030000D03*
X143510000Y-118110000D03*
G04 #@! TD*
G04 #@! TO.C,C15*
X143510000Y-97790000D03*
X143510000Y-102870000D03*
G04 #@! TD*
G04 #@! TO.C,C14*
X143510000Y-82550000D03*
X143510000Y-87630000D03*
G04 #@! TD*
G04 #@! TO.C,C13*
X143510000Y-67310000D03*
X143510000Y-72390000D03*
G04 #@! TD*
G04 #@! TO.C,C12*
X143510000Y-52070000D03*
X143510000Y-57150000D03*
G04 #@! TD*
G04 #@! TO.C,C11*
X143510000Y-36830000D03*
X143510000Y-41910000D03*
G04 #@! TD*
G04 #@! TO.C,C10*
X143510000Y-21590000D03*
X143510000Y-26670000D03*
G04 #@! TD*
G04 #@! TO.C,C9*
X143510000Y-6350000D03*
X143510000Y-11430000D03*
G04 #@! TD*
G04 #@! TO.C,C8*
X143510000Y8890000D03*
X143510000Y3810000D03*
G04 #@! TD*
G04 #@! TO.C,C7*
X149860000Y37465000D03*
X154940000Y37465000D03*
G04 #@! TD*
D22*
G04 #@! TO.C,C6*
X161290000Y-55340000D03*
D30*
X161290000Y-53340000D03*
G04 #@! TD*
D22*
G04 #@! TO.C,C5*
X161290000Y-40100000D03*
D30*
X161290000Y-38100000D03*
G04 #@! TD*
D22*
G04 #@! TO.C,C4*
X161290000Y-24860000D03*
D30*
X161290000Y-22860000D03*
G04 #@! TD*
D22*
G04 #@! TO.C,C3*
X161290000Y-9620000D03*
D30*
X161290000Y-7620000D03*
G04 #@! TD*
D22*
G04 #@! TO.C,C2*
X161290000Y5620000D03*
D30*
X161290000Y7620000D03*
G04 #@! TD*
D22*
G04 #@! TO.C,C1*
X152400000Y43910000D03*
D30*
X152400000Y41910000D03*
G04 #@! TD*
M02*
